<?xml version="1.0" encoding="utf-8"?>
<!-- Generator: Adobe Illustrator 21.0.0, SVG Export Plug-In . SVG Version: 6.00 Build 0)  -->
<!DOCTYPE svg PUBLIC "-//W3C//DTD SVG 1.1//EN" "http://www.w3.org/Graphics/SVG/1.1/DTD/svg11.dtd">
<svg version="1.1" id="Layer_1" xmlns="http://www.w3.org/2000/svg" xmlns:xlink="http://www.w3.org/1999/xlink" x="0px" y="0px"
	 viewBox="0 0 72.8 49.2" style="enable-background:new 0 0 72.8 49.2;" xml:space="preserve">
<style type="text/css">
	.st0{fill:#FFFFFF;}
</style>
<g transform="matrix( 1, 0, 0, 1, 0,0) ">
	<g>
		<g id="Layer2_0_FILL">
			<path class="st0" d="M67.2,13.7c-0.7-0.9-1.5-1.7-2.2-2.5c-0.2-0.3-0.5-0.6-0.8-0.9c-0.9-1-1.9-1.8-2.9-2.6
				c-2.1-1.4-4.3-2.7-6.5-4l-4.2-1.4L50.5,2l-5.2-1.5c-0.4-0.1-0.7-0.1-1.1-0.2c-3-0.4-6.1-0.5-9.1-0.3c-1,0-2,0.1-3,0.3
				c-1.9,0.5-3.8,1-5.8,1.2C25.2,1.7,24.1,2,23,2.4c-1.8,0.7-3.6,1.4-5.5,2c-1.1,0.4-2.1,1-2.9,1.8l-4,2.5c-0.7,0.6-1.4,1.2-2,2
				c-1,1-1.9,2-2.8,3c-0.6,0.8-1.2,1.5-1.8,2.2l-4,7C0,23,0.8,23.3,2.5,24C4,24.7,6,25.3,8.4,25.8c2.4,0.6,4,1,4.9,1.3
				c0.8,0.3,1.7,0.5,2.7,0.7c2,0.3,3.9,0.8,5.5,1.3c0,0.1,0,0.1,0,0.2c0.4,0.3,0.7,0.7,1,1.1c0,0.1,0,0.2,0,0.2
				c-0.3,0.9-0.6,1.9-0.8,3c0,0.1,0,0.2,0.1,0.2c0.7,0.6,1.2,1.2,1.7,2c0.4,0.2,0.8,0.3,1.2,0.4c0.8,0.2,1.4,0.6,1.8,1.4
				c0.1,0.1,0.1,0.2,0.2,0.3l1.5,0.9l1,2.9c0.2,0.6,0.5,1.3,0.7,2c0.3,0.1,0.6,0.3,0.8,0.6c0.2,0.3,0.4,0.5,0.6,0.7
				c0.6,0.4,1.1,1,1.5,1.7c0.6,1.4,1.8,2.3,3.5,2.6c0.1,0,0.1,0,0.1-0.1c0.2-0.3,0.5-0.4,1-0.4c0.6-0.8,1.2-1.6,1.9-2.3
				c0.4-0.4,0.7-0.8,1.1-1.2c1.2-1,2.1-2.2,2.8-3.8c0-0.1,0-0.1,0-0.2c0-0.3,0.1-0.6,0.1-0.9c0.1,0,0.1,0,0.2-0.1
				c0.1-0.4,0.2-0.8,0.4-1.2c0.1,0,0.1,0,0.2-0.1c1.2-0.8,2.2-1.7,3.1-2.8c0.1,0,0.1,0,0.2-0.1c0.6-0.1,1.1-0.3,1.7-0.4
				c0-0.1,0-0.1,0.1-0.2c0.4-0.4,0.8-0.7,1.2-1.1c0-0.1,0-0.1,0.1-0.2c0.2-0.5,0.3-1.2,0.2-2c-0.1,0-0.2,0-0.2-0.1
				c-0.1-0.5-0.2-0.9-0.3-1.4c0.1,0,0.1,0,0.2-0.1c0.2-0.5,0.5-0.8,0.8-1.1c0.1,0,0.1,0,0.2-0.1c2-0.7,4.2-1.1,6.6-1.3V28
				c0.8-0.1,1.5-0.4,2.1-0.8c1.3-0.1,2.6-0.3,3.8-0.6c0.6-0.1,1.2-0.3,1.8-0.4l7.1-1.7c0-0.1,0-0.1,0-0.2
				C72.2,20.7,70.3,17.1,67.2,13.7 M35.7,31.6v-0.1c0.5,0,0.9,0,1.4,0c0.1,0,0.2,0,0.2,0c0.3,0.2,0.7,0.4,1,0.5c0.1,0,0.1,0,0.2,0
				c0.4,0.6,0.7,1.2,1.1,1.8c0,0.1,0,0.1,0,0.2c0,0.9-0.1,1.6-0.4,2.1c-0.1,0-0.1,0.1-0.1,0.2c-0.4,0.4-0.8,0.8-1.3,1
				c0,0,0,0.1,0,0.2c-0.7,0-1.4-0.1-2.2-0.1c-0.1,0-0.1,0-0.2,0c-0.3-0.2-0.6-0.4-0.9-0.5c-0.1,0-0.1,0-0.1,0
				c-0.2-0.3-0.3-0.5-0.5-0.7c-0.1,0-0.1-0.1-0.2-0.1c-0.1-0.7-0.2-1.4-0.4-2c0-0.1,0-0.2,0-0.2c0.2-0.3,0.4-0.6,0.5-0.9
				c0-0.1,0-0.2,0-0.2C34.1,32.1,34.8,31.7,35.7,31.6z"/>
		</g>
	</g>
</g>
</svg>
