<?xml version="1.0" encoding="utf-8"?>
<!-- Generator: Adobe Illustrator 21.0.0, SVG Export Plug-In . SVG Version: 6.00 Build 0)  -->
<!DOCTYPE svg PUBLIC "-//W3C//DTD SVG 1.1//EN" "http://www.w3.org/Graphics/SVG/1.1/DTD/svg11.dtd">
<svg version="1.1" id="Layer_1" xmlns="http://www.w3.org/2000/svg" xmlns:xlink="http://www.w3.org/1999/xlink" x="0px" y="0px"
	 viewBox="0 0 74.6 114.5" style="enable-background:new 0 0 74.6 114.5;" xml:space="preserve">
<style type="text/css">
	.st0{fill:#FFFFFF;}
</style>
<g transform="matrix( 1, 0, 0, 1, 0,0) ">
	<g>
		<g id="Layer3_0_FILL">
			<path class="st0" d="M40.9,88.7c0-1.1-0.1-1.9-0.6-2.3c0-0.1,0-0.2,0-0.2c-0.7-0.2-1.3-0.4-1.7-0.8c-0.1,0-0.2,0-0.4,0
				c-0.8,0-1.6,0-2.4,0c0,0.1,0,0.1-0.1,0.1c-0.9,0.2-1.5,0.5-2,0.9c0,4,0,8,0.1,12c0,1.3,0.1,2.7,0.1,4.1c0,1.7,0.2,3.3,0.5,4.7
				c0.3,1.4,0.5,2.8,0.6,4.3c0.1,0,0.2,0,0.2,0.1c0.4,1.2,1,2.2,1.9,2.9c0.1,0,0.2,0,0.2-0.1c0.8-1.3,1.5-2.6,2.2-3.9
				c0.1-2,0.3-3.9,0.5-5.7c0.3-1.9,0.5-4,0.5-6.1C40.7,95.4,40.7,92,40.9,88.7 M22.1,72.9c0,0.2,0,0.5,0.1,0.7
				c0,0.1,0.1,0.2,0.1,0.3c-0.1,0.6-0.1,1.3,0,2c0.3,1.6,0.4,3.6,0.4,5.8c0,0.1,0,0.2,0,0.2c-0.2,1.7,0.3,2.2,1.2,1.8
				c0,0.2-0.1,0.4-0.2,0.6v0.2c0.8-0.2,1.9-0.2,3.4-0.1c1.4-0.9,3-1.8,4.5-2.7c0.7-0.4,1.3-0.4,1.8,0c0,0.1,0,0.2-0.1,0.2
				c-0.9,0.6-1.6,1.3-2.3,2.1c-0.1,0-0.3,0-0.4,0.1c-0.7,0.3-1.4,0.6-2.1,0.9c0.2,0.6,0.1,1-0.2,1.1c-0.8,0.5-0.8,0.8-0.1,0.9
				c0.3,0.3,0.8,0.2,1.3-0.1c1.9-1.3,4.1-2.5,6.4-3.6c0.1,0,0.2,0,0.4,0c0.9,0,1.9,0,2.8,0c0.8,0.5,1.6,0.9,2.4,1.4
				c0.3,0.2,0.6,0.3,1,0.5c0.2,0.1,0.4,0.1,0.6,0.2c0.6,0.3,1.1,0.7,1.5,1.1c0.9,0.8,2.2,1.2,4,1.2c0-0.1,0-0.2,0-0.2
				c0.2-0.1,0.4-0.1,0.5-0.2c0.8-0.5,1.5-1,2.2-1.6c0.6-2.2,1-4.6,1-7.3c0-1,0.1-2.1,0.2-3.1c0.3-1.9,0.3-4,0.1-6.4
				c0-0.1,0-0.2,0-0.4c-0.1-0.4-0.3-0.6-0.7-0.6c-0.4,0.3-0.6,0.8-0.8,1.3C51,69.3,51,69.4,51,69.5c-0.1,3.1-0.1,6.3-0.1,9.4h-0.2
				c-0.1,0.8-0.6,1.3-1.6,1.4c-0.1,0-0.2,0-0.2-0.1c-0.7-0.7-1.2-1.6-1.5-2.6c-0.1,0-0.2,0-0.2-0.1c-0.7-0.8-1.4-1.6-2.2-2.2
				c-0.1,0-0.2,0-0.3-0.1c-2.4-1.4-5.5-2.1-9.5-1.9c0,0.1,0,0.2,0,0.2c-2.1,0.6-4.1,1.3-5.9,2.2c0,0.1,0,0.2-0.1,0.2
				c-0.7,0.7-1.4,1.4-2,2.1c0,0.1,0,0.2-0.1,0.4c-0.2,1.3-1,1.9-2.4,2c-0.1-0.2-0.3-0.5-0.4-0.7c-0.1-0.1-0.1-0.2-0.1-0.3
				c-0.1-2.2-0.1-4.3-0.1-6.4c0-0.2-0.1-0.4-0.2-0.5C23.2,72,22.7,72.1,22.1,72.9 M23.5,70.9c0.3-0.4,0.3-1.1-0.1-2
				c-0.3-0.8-0.7-1.1-1.3-0.8c0,0.2,0,0.5-0.1,0.7c-0.1,0.8,0.1,1.3,0.5,1.5l0.3,0.1C22.7,71.2,22.9,71.4,23.5,70.9 M18.1,67.6
				c-0.2-0.2-0.3-0.4-0.4-0.6c-0.4-0.6-0.7-1.4-0.9-2.2c-0.4-0.4-0.9-0.3-1.4,0.3c-0.4,0.4-0.7,0.3-1-0.3c0,0.1,0,0.2,0,0.3
				c0.2,0.8,0.2,1.5,0,2c0.6,0.3,1.2,0.7,1.6,1.2c0.1,0.1,0.2,0.2,0.3,0.3c0.6,0.7,1.3,0.9,1.9,0.4C18.7,68.8,18.6,68.3,18.1,67.6
				 M15.4,48.7c0,0.1,0,0.2,0,0.3c-0.1,3.1-0.2,6.1-0.4,9.1c-0.1,0-0.1,0-0.1,0c-0.2,1.2-0.6,2.2-1.2,3c0.2,0.5,0.4,0.9,0.5,1.4
				c0,0.1,0,0.2-0.1,0.3c-0.5,0.3-0.5,0.6,0.1,0.8c0.1,0,0.1,0,0.2,0c0.1,0,0.2,0.1,0.3,0.2c0.6-0.3,1.2-0.7,1.7-1
				c0.1-0.1,0.2-0.2,0.3-0.3c0.3-0.7,0.7-0.8,1.1-0.3c-0.6,0.2-0.9,0.6-0.9,1.2l0.2-0.1c0.1-0.1,0.2-0.1,0.3-0.1
				c0.6-0.7,1.5-1.3,2.5-1.7c0.1,0,0.2,0,0.3,0c0.6,0.4,0.8,0.6,0.6,0.8l0.1,0.2c0,0.1,0.1,0.2,0.1,0.3c0.5,0,0.8,0.1,1.1,0.3
				c0.1,0,0.2,0,0.3,0c0.4,0.7,1,1.1,1.8,1.2v-0.2c0.4-0.1,0.6-0.4,0.7-0.9c0,0,0.1,0,0.2,0.1c0.5,0.3,0.5,0.7,0.1,1.1
				c-0.7,0.3-0.8,1-0.2,2c0,0,0.1,0,0.2,0.1c-0.2,1.2,0,2,0.4,2.6c0,0,0.1,0,0.2,0c0.6-0.7,0.9-0.7,0.9,0h-0.1
				c-0.4,0.5-0.8,0.9-1.1,1.3c-0.1,0-0.2,0-0.2,0.1c0.3,0.6,0.3,1.1,0.2,1.4c-0.3,0.9-0.2,1.4,0.5,1.6c0.8,0.5,1.4,0.3,1.9-0.6
				c0-0.1,0.1-0.1,0.2-0.1c0.2-0.7,0.3-1.5,0.3-2.4c0-0.1,0-0.2,0-0.3c0.3-0.6,0.6-1.2,1-1.8c0.1-0.1,0.1-0.2,0.1-0.3
				c-0.1,0-0.2,0-0.2,0.1c-0.3,0.4-0.6,0.3-0.8-0.4c0.5-0.6,0.9-0.7,1.3-0.2c0.1,0.1,0.1,0.1,0.1,0.2c0.1,0,0.2,0,0.2-0.1
				c0.3-0.3,0.6-0.6,0.8-1c0.9-0.3,1.9-0.7,2.8-1.1c1-0.4,2.1-0.6,3.5-0.6c2.8,0,5,0.6,6.5,1.9c0.1,0.1,0.3,0.2,0.4,0.4
				c0.9,0.8,1.6,1.7,2.2,2.8c0,0.1,0,0.2,0,0.3c0,0.6,0,1.1,0,1.7c0.1,0,0.1,0,0.1,0.1c0.1,1.1,0.8,1.6,2,1.6c0.1,0,0.2,0,0.3-0.1
				s0.2-0.2,0.2-0.2C49,71.3,49,69.1,49,67c0.1,0,0.2,0,0.2,0c0.2-0.8,0.5-1.6,0.9-2.3c0.1,0,0.2,0,0.2-0.1c0.4-0.4,0.8-0.8,1.1-1.3
				c0.1,0,0.2,0,0.3-0.1c1-0.8,2.5-1.2,4.2-1.3c0,0.1,0,0.2,0.1,0.2c0.9,0.3,1.5,1,1.7,1.8c0,0.6-0.1,1.1-0.2,1.6
				c-0.1,0.5-0.4,0.9-0.7,1.2c-0.7,0.9-0.9,1.7-0.5,2.6c0.1,0,0.2,0,0.3-0.1c1.9-0.8,3.4-2.1,4.2-3.9c0-0.6,0.1-1.1,0.2-1.6
				c0-0.1,0-0.2,0-0.3c-0.3-0.5-0.3-1.3-0.2-2.4c-0.6-0.6-0.9-1.3-1.1-2.3c0-0.1-0.1-0.2-0.1-0.3c-0.5-3.1-0.6-6.5-0.5-10.1
				c-0.4-0.5-0.9-0.9-1.4-1.2c-0.7-0.3-1.2-0.8-1.6-1.3c-0.7-1.1-1.4-2.2-2.3-3.2c-1.6-1.8-3.3-3.4-5.2-5c-1.1-0.5-2.3-1-3.4-1.5
				c-1.1-0.5-2.4-0.9-3.9-1.1c-1-0.2-2.1-0.3-3.2-0.4c-1.8-0.1-3.3,0-4.6,0.2c-1.5,0.3-2.8,0.8-4.1,1.3c-1.2,0.5-2.4,1-3.6,1.5
				c-1.9,1.4-3.7,3-5.3,4.6c-0.6,0.6-0.7,1-0.3,1.4c0,0.1,0,0.2,0,0.2c-1.1,0.9-1.1,1.1,0,0.8c0.1,0,0.2,0,0.2,0
				c0.1,0.2,0,0.4,0,0.5c-0.5,0.6-1,1.2-1.6,1.8c-0.1,0-0.2,0-0.3,0.1C17.5,47.5,16.4,48.1,15.4,48.7 M24.5,45.6
				c1.1-0.4,2.4-0.8,3.9-1c0.5-0.1,1-0.1,1.4-0.2c1.1-0.2,1.9-0.1,2.5,0.3c0.6,0.8,0.6,1.6,0.2,2.4c-0.1,0.3-0.2,0.6-0.2,0.9
				c0,0.8,0,1.6,0,2.3c-0.3,0.4-0.6,0.8-0.7,1.3c0,0.1,0,0.2,0,0.3c-1,0.7-2.3,1.2-3.8,1.6c-1.4,0.3-2.6,0.7-3.6,1.3
				C24,54.9,23.8,55,23.6,55c-1.6,1-3.1,1.9-4.4,3c-0.2,0.1-0.3,0.2-0.5,0.3c-0.3,0.2-0.6,0.4-0.9,0.7c-0.2,0.1-0.3,0.2-0.5,0.3
				s-0.4,0.3-0.5,0.5c-0.8,0.7-1.2,0.7-1.4,0c1.8-1.1,3.6-2.3,5.4-3.5c0.1-0.1,0.3-0.2,0.4-0.3l-0.1-0.2C21,55.7,21,55.6,21,55.5
				c0.3-0.3,0.8-0.4,1.5-0.2c0.1,0,0.1,0,0.2-0.2c0.1-0.1,0.1-0.2,0.1-0.3c0.8-0.3,0.5-0.4-1-0.3c-0.5,0-1,0-1.5,0
				c-0.6-0.4-1-1.1-1.1-1.9c-0.3-1.4-0.1-2.7,0.5-4.1C21,47.2,22.6,46.3,24.5,45.6 M49.1,45.3c2.9,0.6,5,2,6.3,4.1
				c0.2,1.6,0.1,3-0.3,4.1c0,0.1,0,0.2,0,0.3c-1.2,0.7-2.8,0.8-4.9,0.5c-0.1,0-0.3,0-0.4,0c-1.4-0.3-2.9-0.6-4.5-0.8
				c-0.2-0.3-0.6-0.5-1-0.6c-0.1,0-0.2-0.1-0.4-0.1c-0.5-0.5-0.9-1.2-1.2-2c0,0-0.1,0-0.2,0c-0.2-1.8-0.4-3.7-0.4-5.7
				c0-0.1,0-0.2,0-0.3c1.4-0.5,2.8-0.5,4.2-0.1C47.2,44.9,48.1,45.1,49.1,45.3 M37.1,47.9c0.1,0,0.1-0.1,0.1-0.2
				c2.2,1.2,3.5,3.3,4,6.3h0.2c0.3,2.2,0,3.8-1,4.8c-0.1,0.1-0.1,0.2-0.1,0.2c-1,0.5-1.8,0.4-2.5-0.2c-0.1-0.1-0.2-0.1-0.2-0.1
				c-0.9,0.3-1.8,0.6-2.5,0.9v-0.2c-1.2-0.4-1.8-1.2-1.9-2.7c0-0.3,0-0.5-0.1-0.7C33,55.7,33,55.3,33,55c0.2-0.5,0.4-0.9,0.5-1.4
				c0.2-1,0.5-1.9,0.9-2.7c0.3-0.5,0.6-1,0.9-1.4c0.1-0.2,0.1-0.3,0.1-0.6C35.9,48.5,36.4,48.2,37.1,47.9 M28.7,27.7
				c1,0.1,1.6-0.2,1.8-0.8c-0.5-0.4-1.1-0.4-1.8,0c-0.2,0.1-0.5,0.2-0.8,0.3c-2.1,0.8-4.2,1.6-6.2,2.4c-0.9,1.8-2.4,3.1-4.2,3.9
				c-2,0.8-3.9,1.7-5.6,2.6c-0.2,0.1-0.4,0.2-0.5,0.3s-0.2,0.2-0.4,0.3c-1.5,1.7-3,3.4-4.4,5.2c0,0.1,0,0.2,0,0.4c0,0.9,0,1.7,0,2.6
				c-0.7,0.8-1.2,1.8-1.5,3C5.1,48,5,48.2,5,48.3c-0.5,1.2-0.9,2.4-1.1,3.7c-0.1,0-0.2,0-0.2,0.1C3,52.6,2.4,53,1.8,53.4
				c-0.5,1.6-0.9,3.2-1.2,5.1c-0.1,0.4-0.3,0.9-0.5,1.3c0,0.1,0,0.3,0,0.4c-0.1,1.7,0.2,3,1,3.7c0.1,0.1,0.2,0.2,0.1,0.3
				c-0.1,0.3-0.1,0.7,0.1,1.3c0.2,0.5,0.3,1.1,0.4,1.8c0.3,1.4,0.6,2.8,0.9,4.3c0,0.1,0,0.2,0,0.4c-0.1,0.9-0.2,1.9-0.2,3
				c0,0.1,0,0.2,0.1,0.2C3.9,76.9,5,78.8,6,80.9c0.1,0,0.2,0,0.2,0.1c0.5,0.9,1.4,1.4,2.6,1.6c0,0.1,0,0.2,0.1,0.3
				c1.5,2,3,4,4.4,6.1c0,0.1,0,0.2,0,0.4c0,0.8,0.1,1.4,0.4,2c0.1,0,0.2,0,0.3,0.1c1.9,1.6,3.8,3.3,5.7,4.9c0.1,0,0.2,0,0.3,0.1
				c0.5,0.2,1,0.4,1.5,0.6c2-0.3,4-0.2,5.9,0.4c0.1,0,0.3,0.1,0.4,0.1c0.9,0.2,1.7,0.3,2.5,0.4c0-0.1,0-0.2,0-0.2
				c0.4-0.6,0.5-1.6,0.3-2.8c-0.7-0.5-1.7-0.9-2.8-1.1c-1-0.1-1.9-0.3-2.8-0.6c0-0.2-0.1-0.4-0.2-0.5c-1.2-1.5-2.6-2.9-4-4.2
				c-0.1-0.1-0.2-0.2-0.4-0.2c-0.6-0.2-1-0.4-1.3-0.8c-0.6-0.7-1.5-1-2.9-1c-0.3-0.4-0.6-0.8-1-1c-0.1-0.1-0.2-0.2-0.3-0.3
				c-0.7-1.5-1.6-2.8-2.5-4c0-0.1,0-0.2,0-0.4c0-0.8,0-1.6,0-2.3c-0.3-0.4-0.7-0.9-1-1.5c-0.3-0.5-0.6-1-0.9-1.4
				c-0.7-0.9-1.2-2-1.6-3.2c-0.2-0.1-0.4-0.2-0.6-0.4c-0.2-0.2-0.4-0.3-0.5-0.4c-0.5-0.2-0.9-0.5-1.3-0.8H6.2
				c-0.3-2.5-0.8-4.8-1.6-6.7c0.1,0,0.2,0,0.2,0c0.3-0.5,0.6-0.8,1.1-1C6,63,6,63,6,62.9c0.9-2.6,1.6-5.5,2-8.5c-0.1,0-0.2,0-0.2,0
				c-0.2-0.6-0.4-1.3-0.5-2c0-0.1,0-0.2,0.1-0.3c0.9-1.6,1.6-3.4,2-5.4c0.6-0.1,1.1-0.4,1.5-0.7c1.3-0.9,2.5-1.9,3.5-3.1
				c0.1-0.1,0.2-0.3,0.2-0.4c0.1-0.4,0.3-0.7,0.5-0.9c1.3-0.8,2-2.2,2-4.1c0.1,0,0.2,0,0.3-0.1c1.4-1,3-1.8,4.7-2.6
				c0.1,0,0.2,0,0.3,0c0.6,0.3,1.4,0.4,2.5,0.3c0.9-0.5,1.9-0.9,2.9-1.2c0.2-0.1,0.4-0.2,0.5-0.3c0.3-0.2,0.7-0.3,1.2-0.3
				c0.6,0,0.8-0.3,0.7-0.9c-1.1,0.2-2,0.5-2.9,0.9c-0.2,0.1-0.4,0.2-0.5,0.3c-0.8,0.6-1.9,0.8-3.2,0.8c0-0.2,0-0.4,0.1-0.6
				c0-0.2,0.1-0.3,0.1-0.5c0.4-1.6-0.2-2.3-1.6-2.3c0-0.1,0-0.2,0-0.4c0-0.2,0-0.3,0.1-0.4c0.7-0.5,1.3-0.8,2-1.1
				c0.2-0.1,0.4-0.2,0.5-0.3c1-0.6,2.2-1,3.6-1.3C28.5,27.7,28.6,27.7,28.7,27.7 M12.7,36.4c0.1-0.1,0.1-0.1,0.2-0.1
				c0.7,0.2,1.2,0.7,1.5,1.3c0.2,0.2,0.4,0.4,0.7,0.5c0.2,0.1,0.4,0.2,0.6,0.2c0.1,0,0.2,0.1,0.4,0.2c0.2,0.7,0.1,1.2-0.2,1.4
				c-0.1,0-0.1,0.1-0.1,0.2c-1.5,1.8-3.2,3.4-5,4.9c-0.1,0.1-0.2,0.1-0.3,0.1c-0.4-0.6-1-1.1-1.7-1.4c-0.1-0.1-0.3-0.1-0.4-0.1
				c-1,0-1.3-0.5-1-1.5C7.8,41.9,8,41.5,8.1,41c0-0.1,0-0.2,0-0.3C9.6,39.5,11.2,37.9,12.7,36.4 M6.3,54c0.7,0.4,0.9,1.3,0.6,2.7
				c0,0.1-0.1,0.3-0.1,0.4c-0.1,1.3-0.3,2.4-0.7,3.3c-0.3,0.8-0.7,1.5-1.1,2.2c0,0.3-0.2,0.4-0.4,0.5c-0.3,0.3-0.8,0.3-1.4,0.2
				c-0.4-0.1-0.9-0.2-1.3-0.2c-0.1,0-0.3-0.1-0.4-0.2c-0.5-0.5-0.7-1.3-0.7-2.3c0-0.1,0-0.2,0-0.3c0.3-0.5,0.5-1,0.6-1.7
				c0.2-1.2,0.4-2.2,0.7-3.1c0.4-0.9,0.9-1.7,1.6-2.3C4.3,53.9,5.3,54.2,6.3,54L6.3,54 M3.5,73.6c1,0.1,1.7,0.1,2.2-0.2
				c0.3-0.2,0.5-0.5,0.6-0.9c0.1-0.3,0.4-0.4,1.1-0.3c1.3,1.8,2.5,3.7,3.6,5.7c0.1,0.1,0.1,0.3,0.2,0.4c0.3,0.8,0.3,1.4,0.1,2
				c-0.5,0.2-0.9,0.5-1.3,0.8s-1,0.4-1.6,0.5c-0.9-0.2-1.5-0.6-1.9-1.3c0,0-0.1-0.1-0.2-0.1c-0.8-1.6-1.7-3.1-2.6-4.7
				c0,0-0.1,0-0.2,0C3.5,74.9,3.5,74.3,3.5,73.6C3.5,73.8,3.5,73.6,3.5,73.6 M17,87.9c0-0.1,0-0.2,0.1-0.3c1.6,0.3,2.9,1.1,3.8,2.2
				c0.1,0.1,0.2,0.2,0.3,0.3c0.9,0.8,1.8,1.7,2.7,2.6c0,0.9-0.3,1.6-0.9,1.9c-0.1,0.1-0.1,0.2-0.1,0.4c0.1,0.6,0,1-0.4,1.1
				c-1,0.1-1.7,0-2.2-0.3c-0.1,0-0.2-0.1-0.3-0.1c-2-1.5-3.8-3.2-5.5-5.1c-0.1-0.1-0.1-0.2-0.1-0.2c0.8-0.1,1.4-0.5,1.8-1
				c0.1-0.1,0.2-0.2,0.4-0.3C16.9,88.9,17.1,88.6,17,87.9 M37.1,0.2c-0.7,0.6-1.5,1-2.4,1.4c-0.4,0.2-0.6,0.6-0.5,1.4
				c0,0.1,0,0.2,0,0.4c-0.5,1.7-0.1,2.4,1.3,2.3C35.8,6.3,35.9,7,35.7,8c0,0.2-0.1,0.5-0.1,0.7c-0.1,0.9-0.1,1.8-0.1,2.6
				c0,0.8,0.1,1.6,0.2,2.3c0.1,0.3,0.1,1,0.1,2.1c-0.1,0-0.2,0-0.4,0c-0.1,0.1-0.2,0.2-0.2,0.3c0,1.5-0.1,2.7-0.5,3.7
				c-0.1,0.1-0.2,0.2-0.3,0.2s-0.3,0-0.4,0c-1.4-0.1-2.7-0.2-4.1-0.2c-0.1,0-0.2,0-0.2-0.1c-0.1-0.2-0.1-0.3-0.2-0.4
				c-0.4-0.2-0.8-0.3-1.2-0.4c-0.4-0.1-1-0.1-1.8,0.1c0,0.1,0,0.2,0,0.4c0,1.4,0,2.9,0,4.3c0.1,0,0.2,0,0.4,0c1.6,0.3,2.6,0,2.8-1
				c0.5,0,0.9,0,1.4-0.1c1.2-0.1,2.1,0,2.8,0.5c0.1,0.1,0.1,0.2,0.1,0.3c0,0.2,0,0.4,0,0.7c-0.1,2-0.2,4-0.4,6
				c-0.1,1.1,0.1,1.9,0.6,2.4v0.2c0.1,0,0.2,0,0.4,0c2.2-0.1,4.4-0.2,6.6-0.2c0-2.5-0.1-4.9-0.2-7.4c0-0.9,0.2-1.6,0.6-2v0
				c1.2-0.1,2.3-0.2,3.5-0.2c0.1,0,0.2,0,0.2,0c0.3,0.9,1.2,1.2,2.6,1c0.2,0,0.4,0,0.4,0c0.2-0.8,0.4-1.5,0.4-2.3
				c0.1-1.1,0-1.9-0.4-2.4c-0.5-0.1-0.7-0.1-1-0.1c-0.1,0-0.2,0-0.2,0c-0.5-0.3-1-0.2-1.5,0.2c-0.1,0.1-0.2,0.2-0.4,0.3
				c-0.5,0.4-1.4,0.6-2.4,0.6c-1.2,0-2.2-0.2-2.8-0.6c-0.1-0.1-0.2-0.2-0.2-0.4c-0.1-0.6-0.2-1.1-0.2-1.6c-0.3-1.9-0.4-4.1-0.3-6.5
				c0-1.1,0-2.2-0.2-3.3c-0.2-1.4,0.2-2.1,1.3-2.1c0.4-0.5,0.5-1.2,0.2-2.3c-0.2-0.6-0.1-1.1,0.1-1.7c-0.1,0-0.2,0-0.4,0
				C39.1,1.3,38,0.8,37.2,0C37.2,0.1,37.1,0.2,37.1,0.2 M70.8,51.7c0-0.1,0-0.2-0.1-0.3c-0.9-2.4-1.8-4.8-2.8-7c0-0.1,0-0.2,0.1-0.3
				c0.3-0.7,0.3-1.5-0.1-2.4c-1.1-1.1-2.1-2.2-3-3.4s-2-2.2-3.3-2.9c-0.3,0-0.7,0-1,0c-0.2,0-0.4,0-0.6-0.2
				c-1.9-1.3-3.9-2.5-6.1-3.5c0-0.1,0-0.2,0-0.3c-0.3-0.6-0.6-1.2-1-1.7c-1.5-0.5-2.9-1-4.2-1.6s-2.6-1.1-4.1-1.5
				c-0.2,0.9,0.3,1.3,1.4,1.2c0.1,0,0.2,0,0.3,0c1,0.2,1.8,0.4,2.5,0.7c1.4,0.6,2.7,1.3,3.8,2.1h0.1c-0.2,0.5-0.7,0.9-1.5,1
				c-0.2,0.2-0.4,0.5-0.4,1c0,0.2,0,0.4,0.1,0.5c0.4,0.6,0.5,1,0.2,1.2c0,0.4-0.2,0.5-0.7,0.5c-0.5-0.1-0.8-0.2-1.1-0.4
				c-1.5-0.7-3.1-1.3-4.9-1.8c0,0.1,0,0.2,0,0.2c1.8,0.9,3.7,1.8,5.6,2.5c0.1,0,0.2,0,0.3,0c0.9-0.1,1.7-0.2,2.5-0.3
				c0,0.1,0,0.2,0,0.2c1.7,0.6,3.1,1.4,4.2,2.5c0.1,0,0.2,0,0.2,0.1c0.1,0.5,0.1,1,0.1,1.6c0.8,1.2,1.7,2.2,2.7,3.2
				c0.1,0.1,0.2,0.2,0.3,0.3c0.9,0.8,1.6,1.8,2.2,2.9c0.1,0,0.2,0,0.3,0c0.8,0.3,1.5,0.6,2.1,1c0,0.1,0,0.2,0,0.3
				c0.6,1.7,1.3,3.4,2.1,5.1c0,0.1,0,0.2,0,0.3c0,0.4,0,0.9,0,1.3h-0.1c0,0.6-0.1,0.9-0.6,1c0,0.1,0,0.2,0.1,0.3
				c0.3,0.5,0.4,1.2,0.2,2.1h0.2c-0.1,0.6,0.1,0.9,0.5,1c0,0.1,0,0.2,0,0.3c0,0.6,0,1.1,0,1.7c0.1,0,0.2,0,0.2,0
				c0.3,1.1,0.5,2.1,0.9,3c0.1,0,0.2,0,0.2,0.1c0.3,0.4,0.6,0.7,1.1,0.9c-0.3,0.9-0.6,1.9-0.9,3c0,0.1,0,0.3,0,0.4
				c-0.1,1.3-0.4,2.4-0.9,3.3c0,0.1,0,0.2,0,0.2c-0.4,0.2-0.9,0.3-1.4,0.4c0,0.1,0,0.2-0.1,0.3c-1.7,2.2-3.2,4.5-4.4,7.1
				c0,0.3,0,0.6,0.1,0.9c0.1,0.8,0.1,1.3-0.1,1.4c0,0.1,0,0.2-0.1,0.3c-1.2,1.6-2.3,3.3-3.4,5c-0.1,0-0.2,0-0.4,0
				c-1.1,0.1-2,0.3-2.8,0.7c0,0.1,0,0.2-0.1,0.2c-2.4,1.6-4.5,3.5-6.2,5.8v0.1c-1.9,0.2-3.5,0.6-4.9,1.2c0,0.1,0,0.2,0,0.4
				c0,1,0,2,0,3c1.5-0.2,3-0.4,4.2-0.8c1.6-0.4,3.1-0.5,4.5-0.2c0-0.1,0-0.2,0-0.2c0.6-0.2,1.2-0.3,1.7-0.5c0-0.1,0-0.2,0.1-0.2
				c2.4-1.5,4.4-3.3,6.2-5.4c0-0.1,0-0.2,0-0.3c0-0.4,0-0.9,0-1.4c0.1,0,0.2,0,0.2-0.1c1.5-2.1,2.9-4.1,4.3-6.2c1-0.1,1.7-0.4,2.1-1
				c1.5-2.1,2.9-4.3,4.1-6.8c-0.2-1.6-0.1-3,0.1-4.3c0.3-1.4,0.7-2.9,1-4.4c0.1-0.3,0.1-0.5,0.1-0.6c-0.1-0.8,0-1.3,0.2-1.4
				c0-0.1,0-0.2,0.1-0.3c0.3-0.5,0.6-0.9,1-1.4c0.1-1.5-0.1-2.8-0.5-3.9c-0.4-1-0.6-2.1-0.6-3.4c-0.1,0-0.2,0-0.2-0.1
				c-0.1-0.6-0.3-1.2-0.5-1.7c-0.1,0-0.2,0-0.2-0.1C72.1,52.8,71.4,52.2,70.8,51.7 M72.1,53.9c0,0,0,0.1,0,0.2c0.7,2,1.2,4,1.5,6.1
				c0.2,1.1,0.1,1.9-0.1,2.7c-0.8,0.4-1.8,0.5-3.1,0.4c-0.1,0-0.2-0.1-0.4-0.1c-0.9-0.7-1.4-1.8-1.5-3.3c0-0.1,0-0.2-0.1-0.3
				c-0.5-1.5-0.7-3.2-0.8-5.1c0.9-0.3,1.8-0.6,2.8-0.8c0.1,0,0.2-0.1,0.4-0.2c0.1-0.1,0.2-0.2,0.4-0.3
				C71.4,53.4,71.7,53.7,72.1,53.9 M70.4,73.6c0.7,0,1,0.4,0.8,1.3c0,0.1,0,0.2,0,0.4c-1.2,2.3-2.6,4.4-4.3,6.3
				c0,0.1-0.1,0.1-0.2,0.1c-0.7,0-1.2-0.2-1.5-0.6c-0.2-0.3-0.6-0.5-1.2-0.6c-0.4-0.1-0.5-0.5-0.4-1.2c0-0.3,0-0.7,0-0.9
				c0.9-1.3,1.7-2.7,2.4-4.1c0-0.1,0.1-0.2,0.1-0.3c0.6-0.1,1.1-0.5,1.3-1.2c0-0.1,0.1-0.2,0.4-0.2c0,0,0.1-0.1,0.1-0.2
				c0.6,0.2,1,0.6,1.4,1.1C69.5,73.9,70,74,70.4,73.6 M61.3,36.3c1.4,0.3,2.5,1,3.1,2.2c0.1,0.2,0.2,0.3,0.3,0.5
				c0.9,1,1.7,2.1,2.4,3.3c0.1,0.2,0.1,0.4,0.1,0.6c-0.1,0.7-0.7,1-1.8,0.9c-0.1,0-0.2,0-0.2,0.1c0,0.6-0.3,0.9-0.9,1
				c-0.2,0.5-0.6,0.5-1.1,0.1c0.1,0,0,0-0.1,0c-1.3-1.7-2.6-3.3-4-4.8c-0.1-0.1-0.2-0.2-0.4-0.3c-0.3-0.3-0.4-0.8-0.2-1.5
				c1.6,0.1,2.5-0.6,2.6-2C61.2,35.8,61.2,35.8,61.3,36.3 M57.5,87.6c0.2,0.5,0.5,0.9,0.7,1.3c0.4,0.7,1.1,1.2,2.1,1.4
				c-0.7,1.5-1.9,2.7-3.4,3.5c-0.2,0.1-0.3,0.2-0.5,0.4c-0.9,0.9-2,1.5-3.5,1.8c-0.5,0.1-0.7,0-0.7-0.4c-0.3,0-0.3-0.4-0.2-1.1
				c0-0.1-0.1-0.1-0.2-0.2c-0.6-0.4-0.9-0.9-1-1.8c1.8-2,3.9-3.6,6.4-5C57.3,87.7,57.4,87.6,57.5,87.6z"/>
		</g>
	</g>
</g>
</svg>
