<?xml version="1.0" encoding="utf-8"?>
<!-- Generator: Adobe Illustrator 21.0.0, SVG Export Plug-In . SVG Version: 6.00 Build 0)  -->
<!DOCTYPE svg PUBLIC "-//W3C//DTD SVG 1.1//EN" "http://www.w3.org/Graphics/SVG/1.1/DTD/svg11.dtd">
<svg version="1.1" id="Layer_1" xmlns="http://www.w3.org/2000/svg" xmlns:xlink="http://www.w3.org/1999/xlink" x="0px" y="0px"
	 viewBox="0 0 105.1 87.7" style="enable-background:new 0 0 105.1 87.7;" xml:space="preserve">
<style type="text/css">
	.st0{fill:#FFFFFF;}
</style>
<path id="Shape_3_" class="st0" d="M23.4,74.2L23.4,74.2L23.4,74.2C23.4,74,23.4,74,23.4,74.2C23.4,74,23.4,74,23.4,74.2 M10.5,63.7
	c0-0.2,0.2-0.2,0.3-0.2H11v0.2c0,0.2-0.2,0-0.2,0S10.6,63.7,10.5,63.7C10.5,63.9,10.5,63.7,10.5,63.7 M11,64.4
	c0-0.2-0.2-0.2-0.3-0.2c0,0-0.2,0,0-0.2c0,0,0-0.2,0.2-0.2C10.8,63.9,11.2,64.2,11,64.4C11,64.6,11,64.4,11,64.4 M14.1,29.7
	c-0.2,0-0.2,0-0.2-0.2s0-0.2,0.2-0.2s0.2,0,0.2,0.2C14.3,29.5,14.3,29.7,14.1,29.7 M33.7,87.2c0,0.2,0,0.2-0.2,0.3
	c-0.2,0-0.5,0.2-0.7,0s0-0.3,0.2-0.3s0.3-0.2,0.3-0.3c0-0.2-0.2-0.3-0.5-0.3s-0.5-0.3-0.5-0.7c0-0.2,0-0.2-0.2-0.3
	c0.3,0.2,0.7,0.3,1,0.5c0.2,0.2,0.3,0.3,0.3,0.7C33.7,86.7,33.7,86.9,33.7,87.2 M32.3,81.6L32.3,81.6c0.2-0.2,0.2-0.3,0.3-0.3
	c0.2,0,0.2,0.2,0.2,0.3l-0.2,0.2c-0.3-0.2-0.2,0-0.2,0.2l0,0l0,0c0.2,0,0.2,0,0.2,0.2c0,0,0,0.2-0.2,0c-0.2,0-0.2-0.2-0.2-0.3l0,0
	l0,0C32.1,81.9,32.1,81.7,32.3,81.6 M32.1,76.1c0.2,0,0.2,0.2,0.2,0.2s0,0.2,0,0C32.1,76.4,31.9,76.2,32.1,76.1
	C31.9,76.1,31.9,76.1,32.1,76.1 M32.1,75.2l0.2,0.2v0.2v0.2c-0.2,0-0.2,0-0.2-0.2v-0.2C32.1,75.4,31.9,75.2,32.1,75.2 M32.5,80.4
	c0.2,0,0.2,0.2,0.2,0.3c0,0,0,0.2-0.2,0C32.5,80.7,32.3,80.7,32.5,80.4C32.3,80.5,32.3,80.5,32.5,80.4 M32.3,74.7
	C32.3,74.7,32.3,74.5,32.3,74.7c0.2-0.2,0.2,0,0.2,0C32.6,74.9,32.6,74.9,32.3,74.7C32.5,74.9,32.3,74.9,32.3,74.7 M32.5,74
	c0.2,0,0.2,0.2,0.2,0.3c0,0,0,0.2-0.2,0.2C32.5,74.2,32.3,74.2,32.5,74C32.3,74,32.3,73.8,32.5,74 M32.3,73.3c0-0.2,0-0.2,0.2-0.2
	s0.2,0.2,0.2,0.2s0,0.2-0.2,0.2C32.5,73.3,32.3,73.3,32.3,73.3 M73.5,84.8c-0.2,0-0.2-0.2,0-0.3C73.5,84.7,73.5,84.8,73.5,84.8
	L73.5,84.8 M77.3,81.1c-0.2,0-0.2,0.2-0.3,0.2c0,0,0,0-0.2,0v-0.2c0-0.2,0.2-0.3,0.2-0.3h0.2C77.3,80.9,77.4,80.9,77.3,81.1
	C77.4,81.1,77.3,81.1,77.3,81.1 M89.1,75C89.1,75.2,89.1,75.2,89.1,75c-0.2-0.2-0.3-0.2-0.5-0.2s-0.2-0.2,0-0.2c0-0.2,0.2-0.2,0.3,0
	C89.1,74.7,89.1,74.9,89.1,75C89.3,75,89.3,75,89.1,75 M88.9,30.7c-0.2,0-0.2,0.2-0.3,0.2c-0.3,0-0.3,0.2,0,0.3
	c-0.3-0.2-0.7,0-0.9,0s-0.2,0-0.2-0.2c0,0,0-0.2-0.2-0.2c-0.2-0.2-0.2-0.2-0.3-0.2s-0.2,0.2-0.2,0.3c0,0.3,0,0.7,0,1.2
	c0,0.3,0,0.5,0,0.9c-0.2,0.7,0.2,1.4,0,2.1c0,0.5,0.2,1,0,1.5c0,0.2,0,0.3,0,0.5c0,0.5,0,0.9-0.2,1.4c-0.2,0.2,0,0.3,0,0.5
	c0.2,0.2,0.2,0.2,0,0.3c-0.2,0.2-0.2,0.3-0.3,0.5V40h0.2c0.2,0,0.2-0.2,0.3,0c0.2,0.2,0,0.2,0,0.3c0,0.2,0,0.3,0,0.3
	c0,0.3,0.2,0.5,0.2,0.9c0,0.2-0.2,0.5,0,0.9c-0.2-0.2-0.2-0.2-0.3-0.2c0,0,0-0.2-0.2-0.2l-0.2,0.2c0.2,0.2-0.2,0.5,0.2,0.7
	c0.2,0,0,0.2-0.2,0.3c-0.2,0.2-0.2-0.2-0.2-0.2l0,0c-0.2,0.2,0.3,0.3,0,0.5c0.2,0.2,0.2,0.3,0.5,0.3c0,0,0,0,0,0.2c0,0,0,0-0.2,0
	s-0.2,0-0.2,0.2s0.2,0.2,0.3,0.2c0.2,0,0.3,0.2,0.3,0.3c0,0.5,0,0.9,0,1.4c0,0,0,0.2-0.2,0.2c-0.3,0-0.3,0.2-0.5,0.3h0.2
	c0.2-0.2,0.3,0,0.3,0.2s0,0.3,0,0.5c-0.2,0-0.2-0.2-0.2-0.2s-0.2-0.2-0.2,0v0.2c0.2,0.2,0.2,0.2,0,0.3c0,0-0.2,0.2,0,0.2
	s0.2,0,0.2-0.2c0,0,0-0.2,0.2-0.2s0,0.2,0,0.2c0,0.5,0,0.9,0,1.4c0,0.3,0,0.5,0,0.9c0,0,0,0.2-0.2,0.2s-0.2,0-0.2-0.2
	c0,0-0.2-0.2-0.2,0c-0.2,0,0,0.2,0,0.3c0,0.2,0,0.2,0.2,0s0.3,0.2,0.3,0.2c0,0.2,0,0.3-0.2,0.3c-0.2,0.2-0.2,0-0.3-0.2
	c0,0,0-0.2-0.2,0V51c0,0.2,0,0.3,0.3,0.2c0.2,0,0.2,0,0.2,0.2c0,0.5,0.2,0.9,0.2,1.4c0,0.3,0,0.9,0,1.2c0,0.5,0,1,0,1.5
	c0,0.3,0,0.9,0,1.2s-0.2,0.9-0.3,1.2c0,0-0.2,0-0.2-0.2h-0.2v0.2c0.2,0.2,0.2,0.2,0,0.3c0,0-0.2,0,0,0.2c0.2,0.3,0,0.5,0,0.9
	c0,0.2,0,0.3,0.3,0.2c0.2,0,0.2,0,0.2,0.2c0.2,0.5,0.2,1,0.3,1.4v0.2c-0.3,0.2-0.2,0.3-0.2,0.5s-0.2,0.2,0,0.3v0.2
	c-0.3,0.2-0.2,0.5,0,0.7c0,0.2-0.2,0.2-0.2,0.3c0,0.2,0,0.2-0.2,0.2s-0.2,0-0.2,0.2s0,0.2,0,0.3c0.2,0,0.2,0.2,0.3,0.3
	c0,0,0.2,0.2,0,0.2h-0.2c0,0,0-0.2-0.2-0.2c-0.2,0.2,0,0.3,0,0.5c0.2,0.3,0,0.5,0,0.9c0,0.2,0,0.2,0,0.2c0.2,0.2,0.2,0,0.2,0
	c0.2,0,0.2,0,0.3,0c0.2,0.2,0,0.2,0,0.3c-0.3,0.2,0,0.5,0,0.9v0.2c0,0,0,0-0.2,0c-0.3-0.2-0.3,0-0.3,0.2c0,0.5,0,1,0,1.5
	c0,0.2,0,0.2-0.2,0.3c-0.2,0-0.3,0.2-0.2,0.3v0.2c-0.2,0.3,0,0.5,0,0.9c0,0,0,0.2,0.2,0.2c0,0,0.2,0,0.2,0.2c0,0,0,0.2-0.2,0.2
	c-0.3,0.2-0.3,0.2,0,0.3c0,0,0.2,0.2,0,0.2c-0.2,0.2,0,0.3-0.2,0.3s-0.3,0-0.3,0.2s-0.2,0.3-0.3,0.5c0,0-0.2,0-0.2,0.2h0.2
	c0.2-0.2,0.3-0.2,0.2,0.2c0,0.2,0.2,0.2,0.2,0.2s0-0.2,0.2-0.2v0.2c-0.2,0.2,0,0.9,0.2,0.9s0.2,0.2,0.3,0.2c0.3,0.2,0.7,0.5,1,0.7
	c0,0,0,0,0,0.2c0,0,0,0-0.2,0c-0.3-0.2-0.7,0-1-0.3c-0.2-0.2-0.5-0.5-0.7-0.7c-0.2-0.3-0.5-0.3-0.7,0c-0.2,0.2-0.3,0.2-0.5,0.3l0,0
	c-0.2,0-0.2,0-0.2,0c0,0.2,0,0.2-0.2,0.3c0-0.2-0.2-0.3-0.2-0.5c0,0,0-0.2-0.2-0.2h-0.2c-0.2,0.3-0.5,0.3-0.9,0.2c0,0,0,0-0.2-0.2
	c-0.2,0-0.2,0-0.2,0c-0.2,0,0,0.2,0,0.2c0.2,0.2,0.2,0.2,0.2,0.3c0.2,0,0.2,0.2,0,0.3c0,0-0.2,0.2-0.3,0c-0.2-0.2-0.3,0-0.3,0.2
	c-0.2,0.2-0.2,0.3-0.2,0.3c0,0.2-0.2,0.3-0.3,0.2c-0.2,0-0.2,0-0.2,0.2c0.2,0.5-0.3,0.7-0.5,0.9c-0.2,0.2-0.5,0.2-0.5,0.5l-0.2,0.2
	c-0.2,0.2-0.3,0.3-0.3,0.5s-0.2,0.3-0.3,0.3c-0.2,0-0.3,0-0.2,0.3c0,0.2-0.2,0.2-0.2,0.2c-0.2,0.2-0.3,0.3-0.5,0.5
	c0,0.2,0,0.2-0.2,0.2c0,0-0.2,0-0.2,0.2c0,0.3-0.2,0.5-0.3,0.7c0,0.2-0.2,0.2-0.2,0c-0.2-0.2-0.3,0-0.5,0s-0.2,0.2-0.3,0.2
	s0,0.2,0,0.2c0.2,0.2,0.3,0.2,0.3,0.3c-0.2,0.2-0.3,0-0.3,0c-0.2,0-0.2,0-0.2-0.2v-0.2h-0.2c0,0.2-0.3,0.3-0.2,0.5v0.2
	c-0.2,0.3-0.2,0.9-0.5,1c-0.2,0.3-0.5,0.7-0.9,0.9c-0.2,0.2-0.5,0.3-0.5,0.7c-0.2,0.3-0.3,0.7-0.7,1c-0.2,0-0.2,0.2-0.3,0.2
	c0-0.2,0-0.3,0-0.5s0-0.2,0.2-0.2c0.3-0.2,0.5-0.3,0.2-0.7c0,0,0-0.2,0.2-0.2s0.2-0.2,0.2-0.2v-0.2c0.2-0.2,0-0.3-0.2-0.5
	s-0.3-0.3-0.7-0.3l0,0l0,0c0.5,0,0.3-0.5,0.3-0.7c0,0,0,0,0-0.2c0.3-0.3,0.3-0.9,0.7-1.2c0.2-0.2,0.2-0.5,0.3-0.7
	c0-0.2,0-0.3,0.2-0.5c0-0.2,0-0.2,0-0.2s0,0,0-0.2s-0.2-0.5-0.2-0.7c0-0.3,0-0.7,0-1c0-0.2,0.2-0.3,0.2-0.7c0-0.3,0-0.7,0-1
	c0-0.2,0-0.5,0.2-0.7c0-0.2,0-0.3,0-0.5c0-0.3-0.2-0.7-0.2-1c0-0.2-0.2-0.3-0.2-0.5c0-0.5,0.2-0.9,0.2-1.2c0-0.3,0-0.7,0-1
	c0.2-0.5,0-0.9,0-1.4s0.2-1.2,0-1.7c0-0.7,0-1.5-0.2-2.2c0-0.3-0.2-0.5,0-0.9c0-0.2,0-0.3,0-0.3c-0.2-0.3,0-0.5,0-0.9
	c0-0.2,0-0.2,0-0.3v-0.2c0.5-0.5,0.5-1,0.5-1.4c0-0.2,0-0.3-0.2-0.2c0-0.2,0-0.5,0-0.7v-0.2c0,0,0.2,0.2,0.2,0s0-0.2,0-0.2
	c-0.2,0-0.2-0.3-0.2-0.5c0,0,0-0.2,0.2-0.2s0.2-0.2,0.2-0.2c0-0.5,0-0.9,0-1.4c0-0.2,0-0.2-0.3-0.2c-0.2,0-0.3-0.3-0.3-0.5
	s-0.2-0.5,0-0.7c0.2-0.3,0.2-0.5,0-0.9c0-0.3,0-0.7,0.3-0.9c-0.3,0-0.3-0.2-0.3-0.5c0-0.2,0-0.2,0-0.2c0-0.2,0-0.2,0-0.3
	s0.2-0.2,0.2-0.2c0.2,0,0.2-0.2,0.2-0.2c0-0.2,0-0.2-0.2-0.3c-0.2,0-0.2,0-0.2,0.2c0,0,0,0.2-0.2,0.2s0-0.2,0-0.2
	c0-0.3,0.2-0.5,0.3-0.9c0-0.2,0-0.2,0-0.2c-0.2-0.2-0.2-0.3-0.2-0.5c0.2-0.5,0.2-0.9,0.2-1.4c0-0.3,0-0.5,0-0.9c0-0.9,0-1.7-0.2-2.6
	v-0.2c0.2-0.7,0-1.4,0-2.1c0-0.3,0-0.7,0-1.2c0-0.2,0-0.3-0.2-0.2c-0.2,0-0.2,0-0.2-0.2c0,0,0,0,0-0.2v-0.2c-0.2,0-0.2,0-0.2,0.2
	c0,0,0,0,0,0.2c0,0,0,0.2-0.2,0.2s-0.2-0.2,0-0.2l0,0c0.3-0.2,0.3-0.5,0.3-0.9c0-0.2,0.2-0.5,0.2-0.7V41c0.2-0.3,0-0.7,0-1
	s0-0.5,0-0.9c0.2-0.3,0-0.7,0-1c0-0.2-0.2-0.2,0-0.3v-0.2c-0.2,0-0.2-0.2,0-0.3c0.2-0.2,0.2-0.3,0.2-0.5l0,0c-0.3,0-0.2-0.2-0.2-0.3
	v-0.2c-0.2-0.2-0.2-0.2,0-0.2c0,0,0,0,0-0.2c0,0,0-0.2-0.2,0c-0.2,0-0.2,0-0.2,0s-0.2-0.2,0-0.2s0.2,0,0.2-0.2s0-0.2-0.2-0.3
	l0.8-0.2c0.2-0.2,0.2,0.2,0.3,0.2c0-0.2,0-0.5,0-0.7c0-0.7,0-1.4,0-2.2c0-0.2,0-0.3,0-0.7c0-0.2,0-0.2-0.2-0.2c-0.5,0-0.9-0.2-1.4,0
	c-0.2,0.2-0.5,0-0.7,0c-0.5-0.2-1,0-1.5-0.3c-0.2,0.2,0.2,0.2,0,0.3c-0.2,0-0.2,0-0.3,0c-0.3,0-0.7,0-0.9,0s-0.5,0-0.7-0.2
	c-0.3-0.3-0.9-0.7-1.4-0.5c-0.3,0-0.7,0-1.2,0c-1.2,0-2.6,0-3.8,0s-2.6,0-3.8,0c-1.5,0-3.1,0-4.6,0s-3.1,0-4.5,0c-1.2,0-2.4,0-3.6,0
	c-1,0-2.1,0-3.3,0c-1.4,0-2.7,0-4.3,0c-0.3,0-0.5,0-0.9,0.2c-0.2,0.2-0.5,0.2-0.7,0.2c-0.5,0-1,0.2-1.5,0.2v-0.2l0,0
	c-0.2,0-0.2,0.2-0.3,0.2c-0.5,0.2-1,0.2-1.4,0.2h0h-0.2c-0.5-0.2-0.9,0-1.4,0c-0.2,0-0.2,0.2-0.2,0.2c0,0.7,0,1.5,0,2.2
	c0,0.3,0,0.9,0,1.2c0.2,0,0.2-0.2,0.3-0.2c0.2,0.2-0.2,0.2-0.2,0.2s-0.2,0.2,0,0.3c0,0,0,0.2,0.2,0.2h0.2c0,0.2-0.2,0.2-0.2,0.2
	c-0.2,0-0.2,0-0.2,0c0,0.2,0,0,0.2,0s0,0.2,0,0.2c-0.2,0.2-0.2,0.2,0,0.3c0,0,0.2,0.2,0,0.2c-0.2,0.2-0.3,0.3-0.2,0.5
	c0.2,0.2,0.3,0.3,0,0.3v0.2c0.2,0,0.2,0.2,0,0.2s-0.2,0.2-0.2,0.3c0,0.2,0,0.3,0,0.5v0.2c0.2,0.2,0.2,0.5,0.2,0.7s0,0.3,0,0.5
	s-0.2,0.3,0,0.3c0.2,0.3,0,0.7,0,1c0,0.2,0.2,0.3,0.2,0.7c0,0,0,0.2,0.2,0.2s0.2,0.2,0.2,0.2v0.2h-0.2l0,0c0,0,0-0.2-0.2-0.2
	s0,0.2,0,0.2c0.2,0.2,0.2,0.3-0.2,0.3c-0.2,0-0.2,0.2-0.2,0.2c0,0.9,0,1.7,0,2.6c0,0.2,0,0.2,0,0.3c0.2,0.5,0,0.9-0.2,1.4
	c0,0.5,0,0.9,0,1.4c0,0.3,0.2,0.5,0,0.9c-0.2,0.5,0,1,0,1.7c0,0,0,0,0,0.2c-0.2,0.3,0,0.9-0.2,1.2c-0.2,0.9-0.2,1.7-0.2,2.6
	c-0.2,1-0.2,2.1-0.2,3.1c0,1.4,0,2.7,0,4.3c0,0.5,0,0.9,0,1.4c0,0.7,0,1.4,0.2,2.1c0,0.5,0,0.9,0,1.4c0,0.3-0.2,0.7,0.2,1
	c0,0,0.2,0.2,0,0.2s0,0.2,0,0.3c0,0.2,0.2,0.5,0,0.7c0,0,0,0,0,0.2c0.3,0.5,0.2,0.9,0.2,1.4v0.2c0.2,0,0.2,0.2,0.2,0.3
	c0.2,0.2,0.2,0.5,0.3,0.9V73c0,0-0.2,0-0.2,0.2c0,0,0.2,0,0.2,0.2h0.2c0,0,0-0.2,0.2-0.2c0,0.2,0,0.2,0,0.3c0,0,0,0.2-0.2,0.2
	s-0.3,0.2-0.3,0.5c0,0.2,0,0.3-0.2,0.7v0.2c0,0-0.2,0-0.2-0.2s-0.2-0.3-0.2-0.3c0-0.2,0-0.2,0-0.3c0,0,0-0.2-0.2-0.2
	c0,0,0,0-0.2,0.2c0,0.3-0.2,0.5,0,0.9v0.2c-0.2,0.2,0.2,0.3,0,0.5h0.2h0.2v0.2c-0.2,0.2-0.2,0.2,0.2,0.2c0.2,0,0.2,0.2,0.3,0
	c0,0,0.2,0,0.2,0.2v0.2c0,0-0.2,0-0.2,0.2L31,77.1c0.2,0.2,0.2,0,0.3,0c0,0.2,0,0.2-0.2,0.2s-0.2,0.2-0.2,0.2c0,0.2,0.2,0.2,0.2,0.2
	c0.2,0,0.2,0,0.3,0c0,0.2,0,0.2-0.2,0.3c0,0.2-0.2,0-0.2,0s-0.2-0.2-0.2,0c0,0-0.2,0.2,0,0.3c0.2,0,0.2,0,0,0.2l0,0
	c0.2,0.2,0.2,0.3,0.3,0.5c0,0,0,0,0,0.2c0,0,0,0-0.2,0c0,0-0.2-0.2-0.2,0v0.2v0.2h-0.2c0,0,0-0.2-0.2,0c0,0-0.2,0.2-0.2,0.3
	c0,0,0,0.2,0.2,0c0.3-0.2,0.2,0.2,0.3,0.2c0,0.2-0.2,0.2-0.2,0c-0.2,0-0.2,0-0.3,0c0,0-0.2,0-0.2,0.2c0.2,0.2,0.2,0.3,0.3,0.5
	c0.3,0.2,0.3,0.5,0.3,0.9c0,0.2,0,0.2,0,0.3c0.2,0.5,0.2,1,0.2,1.5c0,0.2,0.2,0.2,0.3,0.2l0,0l0,0c0,0,0,0,0-0.2c0,0-0.2-0.2,0-0.2
	c0,0,0.2,0,0.3,0c0,0,0,0.2,0.2,0.2v0.2h-0.2c0,0,0,0-0.2,0l0,0l0,0c0,0.2,0,0.3-0.3,0.3c0,0-0.2,0-0.2,0.2c0.2,0,0.3,0,0.5,0.2
	c0,0,0,0,0,0.2c0,0,0,0-0.2,0c0,0,0,0-0.2,0s-0.3,0-0.2,0.3c0,0.2,0.2,0.3-0.2,0.3c-0.2,0-0.2,0.5,0,0.5c0.3,0,0.3,0.3,0.3,0.5
	c0.2,0,0-0.2,0.2-0.2H31c0,0.2,0,0.2-0.2,0.3c0,0.2-0.2,0-0.2,0c-0.3-0.2-0.5-0.3-0.7-0.7c-0.2-0.2-0.3-0.3-0.3-0.5
	s-0.2-0.3-0.3-0.5c-0.2-0.2-0.3-0.3-0.5-0.5c-0.2-0.3-0.3-0.7-0.7-0.9c0,0,0,0,0-0.2c0-0.3-0.2-0.7-0.2-1.2c0-0.2,0-0.3-0.2-0.3
	c0,0.2,0,0.3,0,0.5v0.2l0.2,0.2c0,0,0,0.2-0.2,0.2c0,0-0.2,0-0.2-0.2s-0.2-0.3-0.3-0.2H28c0-0.2-0.2-0.3-0.2-0.3s-0.2-0.3,0.2-0.2
	c0,0,0.2,0,0.2-0.2c0-0.3-0.3-0.5-0.7-0.3c-0.2,0.2-0.2,0-0.3,0c-0.2-0.8-0.2-1-0.4-1.2c-0.2-0.3-0.5-0.5-0.5-0.9
	c0-0.2-0.2-0.2-0.3-0.2s-0.3,0-0.2-0.3l0,0c-0.3,0-0.5-0.2-0.5-0.5c0-0.2-0.2-0.2-0.2-0.3c-0.2-0.2-0.3-0.3-0.3-0.5l0,0
	c-0.2,0-0.3-0.2-0.5-0.2c-0.3-0.2-0.5-0.5-0.5-0.9c0-0.2,0-0.3-0.2-0.2c-0.2,0-0.2,0-0.3-0.2c0-0.2-0.2-0.3-0.3-0.5
	c-0.2-0.2-0.3-0.2-0.5,0c0,0.2-0.2,0.2-0.2,0s-0.2-0.2,0-0.3c0.2-0.2,0.2-0.2,0.3-0.3c0,0,0.2-0.2,0-0.2c0,0-0.2-0.2-0.2,0
	c-0.2,0.3-0.5,0.2-0.9,0.2c-0.2,0-0.3,0-0.3,0.3c0,0.2-0.2,0.2-0.3,0c-0.2-0.2-0.5-0.5-0.7-0.7s-0.5,0-0.5,0.2c0,0,0,0.2-0.2,0.2
	c0,0-0.2,0.2,0,0.2s0.2,0,0.2,0s0-0.2,0.2,0V75c-0.2,0.2-0.2,0.2-0.3,0.2c-0.2-0.2-0.2-0.3-0.2-0.5c0,0,0.2-0.2,0-0.2
	c0-0.2,0.2-0.5,0-0.7c0,0,0-0.3,0.2-0.3s0.2-0.2,0.2-0.3c0-0.2-0.2-0.2-0.3-0.3h-0.2c0-0.2-0.2-0.3,0-0.5s0.2-0.2,0-0.3
	c-0.2,0-0.3-0.2,0-0.3v-0.2c0-0.2,0-0.3-0.2-0.5c-0.3-0.9-0.5-1.5-0.5-2.4c0,0,0.2-0.3-0.2-0.2c-0.2,0-0.2,0,0-0.2s0-0.3,0.2-0.5
	c0-0.2,0-0.3-0.2-0.3s-0.2-0.2,0-0.3c0.2,0,0.2-0.2,0.3,0s0.2,0.2,0.2,0c0-0.5,0-0.9,0-1.4c-0.2,0-0.2,0.2-0.2,0.2s-0.2,0.2-0.2,0
	v-0.2c0.2-0.2,0.2-0.2,0.3-0.3c0.2-0.2,0.2-0.2,0-0.3c0-0.2-0.2-0.2-0.2-0.2c-0.2,0-0.3-0.3-0.3-0.5s0.2-0.3,0.2-0.5
	c-0.2-1.2-0.2-1.5-0.2-1.9l0,0c-0.3-0.3,0-0.5,0-0.9c0-0.3,0.2-0.7,0.2-0.9s0-0.2,0.2-0.2c0.3,0,0.5-0.2,0.3-0.3
	c0-0.3,0-0.5-0.2-0.9c0,0,0-0.2,0-0.3c0,0,0.2-0.2,0-0.2s-0.2,0-0.3,0l0,0c0-0.2,0-0.5-0.2-0.7c-0.3-0.9-0.2-1.7-0.2-2.6
	c0-0.3,0-0.5,0-0.9c0-0.5,0.2-1,0-1.5c0-0.3,0.2-0.7,0.2-0.9c0,0,0,0,0.2,0s0.2,0,0.2-0.2c0,0,0.2-0.2,0-0.2s-0.2,0.2-0.2,0.2
	s-0.2,0.2-0.2,0c0-0.3,0-0.5,0-0.5c0-0.2,0.2-0.3,0.3-0.2h0.2c0-0.2,0-0.2,0-0.3h-0.2c0,0-0.2,0.2-0.3,0c0-0.2-0.2-0.2,0-0.3V50
	c-0.2-0.7,0-1.2-0.2-1.9v-0.2c0,0,0,0,0.2,0l0,0c0,0,0.2,0.2,0.2,0v-0.2c0,0,0-0.2-0.2-0.2s0-0.2,0-0.2l0.2-0.2c0,0,0-0.2-0.2,0
	c-0.2,0-0.2,0.2-0.2,0.2l0,0c0-0.2,0-0.5,0-0.7s0.2-0.3,0.3-0.2h0.2v-0.2c0-0.2-0.2-0.2-0.2-0.2c-0.2,0-0.2,0-0.2-0.2
	c0-0.5,0-0.9,0-1.4c0-0.2,0-0.3,0.3-0.3c0,0,0.2,0,0.2-0.2c0,0,0-0.2-0.2-0.2c0,0-0.2,0-0.2-0.2c0,0,0,0,0.2-0.2s0.2-0.3,0.2-0.5
	s0-0.2-0.2-0.2c0,0-0.2,0,0-0.2v-0.2V42c0.2,0,0,0.2,0.2,0.2c0-0.2,0-0.3,0-0.7v-0.2c-0.3,0.2-0.2-0.2-0.2-0.2c0-0.3-0.2-0.5,0-0.9
	c0.2-0.3,0.2-0.7,0-1c0-0.2,0.2-0.3,0.3-0.3c-0.2-0.2-0.2-0.3-0.3-0.5v-0.2c0.2-0.2,0.2-0.3,0-0.5c-0.2-0.3-0.2-0.9-0.2-1.2
	s0-0.7,0-1c0-0.2,0-0.2,0-0.3c0-0.2,0-0.5,0-0.9c0-0.9,0.2-1.9,0-2.7c0-0.3,0-0.5,0-0.9c0-0.2-0.2-0.3,0-0.7c0,0,0,0,0-0.2
	c-0.3-0.2-0.2-0.3-0.2-0.5s0-0.3,0-0.5s0-0.3,0.2-0.5s0.3-0.3,0.2-0.5c0-0.2,0-0.3,0-0.3c0-0.3,0-0.5,0-0.9c0-0.2,0-0.2-0.2-0.2
	c-0.2-0.2-0.2-0.2-0.3-0.3c0-0.2,0-0.2,0-0.3c0.3-0.2,0.3-0.5,0.3-0.9s0-0.7,0-1c0,0,0-0.2,0.2-0.2c0.3,0,0-0.2,0-0.2
	c-0.2,0-0.2-0.7,0-0.7h0.2c-0.2-0.2-0.2-0.3-0.2-0.5c0-0.5,0-1,0-1.5c0-0.9,0-1.7,0-2.6c0-0.2,0-0.3,0-0.5s0-0.2,0.2-0.2
	s0.2,0,0.3,0s0.3-0.2,0.2-0.5c0-0.2,0-0.3,0.2-0.3s0.5,0,0.7,0c1.7,0,3.4,0,5.3,0c0.9,0,1.7,0,2.6,0c0.5,0,0.9,0,1.4-0.2
	c0.2,0,0.3,0,0.5,0c0.5,0,0.9,0,1.4,0c0.7,0,1.4-0.2,2.1-0.2c0.2,0,0.3,0,0.5-0.2c0,0,0.2-0.2,0.3,0c0.2,0,0,0.2,0,0.3
	c0.5-0.2,1.2,0.2,1.7-0.2h0.2c0.2,0.2,0.3,0,0.7,0c0.2,0,0-0.3,0.2-0.2c0.2,0,0,0.2,0.2,0.2s0.2,0,0.3,0c0.7,0,1.5,0,2.2,0
	c0.2,0,0.3,0,0.3,0c0.2,0,0.3,0,0.5,0l0,0c0,0-0.2,0-0.2-0.2s0.2,0,0.2,0c0.2,0,0.2-0.2,0.3-0.2H41c0,0,0,0,0,0.2
	c-0.2,0.3-0.2,0.3,0.2,0.3c0.5,0,0.9,0.2,1.4-0.2h0.2c0.2,0,0.2,0.2,0.3,0c0-0.2,0.2,0.2,0.2,0c0,0,0-0.2,0.2-0.2c0,0,0,0,0.2,0
	c0.2,0.2,0.5,0.3,0.7,0.2c0.3,0,0.5,0,0.9,0c0.7,0,1.2,0,1.9,0s1.4,0,2.1,0c0.5,0,1,0,1.4,0c0.3,0,0.7,0,0.9,0c1,0,2.2,0,3.3,0
	c1.4,0,2.7,0,4.1,0c1.2,0,2.6,0,3.8,0c0.3,0,0.5,0.2,0.7-0.2c0.2,0.3,0.5,0.2,0.7,0.2c0.5,0,1,0,1.5,0c0.9,0,1.9,0,2.7,0
	c0.9,0,1.7,0,2.6,0c0.2,0,0.2,0,0.2-0.2s0.2-0.2,0.3-0.2s0.2,0.2,0.2,0.2v0.2l0,0c0.2,0,0.5-0.2,0.7,0c0.2,0.2,0.5,0,0.9,0.2
	c0.3,0,0.5,0,0.9,0s0.5,0,0.9,0c2.2,0,4.3,0,6.5,0c1.4,0,2.7,0,4.1,0h0.2c0.2,0,0.3,0.3,0.3,0.5c-0.2,0.3,0,0.3,0.2,0.3
	s0.2,0.2,0.2,0.3c0,0.5,0,1,0,1.7s0,1.4,0,2.1c0,0.3,0,0.7,0,1s0,0.5,0,0.7s-0.2,0.3-0.2,0.5s0.3,0.2,0.2,0.3c0,0.3,0,0.5,0,0.9
	c0,0.2,0.2,0.5,0.2,0.7c0,0,0,0.2,0.2,0.2c0.3,0,0.3,0.3,0.2,0.3c-0.3,0.3-0.2,0.7-0.2,1c0,0.2,0,0.5,0,0.7s0.2,0.3,0.2,0.3l0.2,0.2
	c0-0.2,0-0.2,0-0.3c0-0.2,0-0.2,0.2-0.3c0.2,0,0.2,0,0.3,0c0.3,0.2,0.5,0.5,0.9,0.9l0.2,0.2c0.2,0.2,0.2,0.2,0.3,0
	c0-0.2,0.2-0.2,0.3,0c0.2,0.2,0.2,0.2,0,0.3c-0.2,0.2-0.2,0.2,0,0.3c0.2,0.2,0.2,0,0.3,0l0.2-0.2c0-0.2,0.2-0.2,0.3,0
	c0.2,0.2,0,0.2,0,0.2c-0.2,0.2,0,0.2,0,0.3c0,0,0.2,0.2,0,0.2h-0.2C89.5,30.4,89.1,30.6,88.9,30.7 M86.9,43.1
	C87.1,43.1,86.9,43.1,86.9,43.1c-0.2,0.2-0.2,0-0.2-0.2c0,0,0-0.2,0.2-0.2C87.1,42.8,86.9,42.9,86.9,43.1 M87.2,58.2
	c-0.2,0.2,0,0.5-0.2,0.7c0,0,0,0.2-0.2,0.2s-0.2-0.2-0.2-0.3c0-0.2,0-0.2,0.2-0.3C87.1,58.2,87.2,58.4,87.2,58.2 M18.4,58.6
	C18.4,58.6,18.4,58.4,18.4,58.6c0.2-0.2,0.2,0,0.2,0c0,0.2,0.2,0.3,0.2,0.3c0,0.2,0,0.2-0.2,0.2s-0.2,0-0.2-0.2
	C18.4,58.9,18.4,58.7,18.4,58.6 M18.2,28.8C18.2,28.8,18.2,28.7,18.2,28.8c0.2-0.2,0.2,0,0.2,0s0,0.2-0.2,0.2V28.8 M28,14.4
	c0-0.2,0.2-0.2,0.2-0.2c0.2,0,0.3,0,0.5,0c-0.2,0-0.2,0.2-0.3,0.2C28.3,14.4,28.2,14.6,28,14.4C28,14.6,28,14.4,28,14.4 M40,16.8
	c0.2,0,0.3-0.2,0.5-0.2h0.2l0,0C40.4,16.8,40.2,17,40,16.8 M41.9,17c0.2-0.2,0.2-0.2,0.3-0.2h0.2V17C42.2,16.8,42.2,17,41.9,17
	 M90.2,75.4c0,0-0.2,0.2-0.3,0l-0.2-0.2c-0.2,0-0.2,0-0.2-0.2s0.2,0,0.2,0h0.2c0.2,0,0.2-0.2,0.3,0C90.3,75.2,90.2,75.2,90.2,75.4
	 M91.2,29.5c0-0.2,0.2-0.2,0.2-0.2c0.2,0,0.2,0,0.2,0.2s-0.2,0.2-0.2,0.2C91.2,29.7,91.2,29.5,91.2,29.5 M104.9,38.3v0.2v0.2
	c0.2,0.2,0,0.3,0,0.5s0.2,0.3,0,0.5c0.2,0.3-0.2,0.5-0.2,0.9c0,0.2-0.2,0.3-0.3,0.2c-0.2,0-0.2,0-0.2,0.2c0,0.5,0,0.9,0,1.4
	s0,1.2,0,1.7c0,0.2,0,0.2,0,0.3c0,0,0,0.2,0.2,0.2s0.2-0.2,0.2-0.2c0-0.2,0-0.3,0.2-0.5c0,0,0-0.2,0.2-0.2s0,0.2,0,0.2s0,0,0,0.2
	c0.3,0.3,0.2,0.9-0.3,0.9c0.2,0.2,0.2,0.2,0.3,0c-0.2,0.2-0.2,0.5-0.5,0.3c-0.2,0-0.2,0-0.2,0.2c0,0,0.2,0.2,0,0.2
	c-0.3,0.3-0.2,0.7-0.2,0.9c0,0.5,0,1,0,1.4c0,0.2,0,0.5,0.2,0.7c0,0.2,0.2,0.3,0,0.5c0,0,0,0.2,0.2,0.2s0.2,0.2,0,0.2
	c-0.3,0.3-0.2,0.9-0.2,1.4c0,0.2,0,0.2,0.2,0.2s0.3,0.2,0.2,0.5c-0.2,0.7-0.7,1-1,1.7l-0.2,0.2c0,0.2,0,0.2,0.2,0.2s0.2-0.2,0.3,0
	c0,0.2,0,0.3-0.2,0.3h-0.2c0,0.2,0.2,0,0.2,0.2c0.2,0,0.3,0,0.3,0.2s-0.2,0.3-0.3,0.2l0,0c0,0.3-0.3,0.5-0.5,0.7s-0.3,0.5-0.7,0.9
	c-0.2,0.2-0.2,0.2-0.3,0c-0.2-0.3-0.3-0.3-0.5,0c-0.2,0.2-0.3,0.3-0.5,0.5s-0.2,0.2-0.3,0h-0.2c-0.2,0.3-0.5,0.3-0.7,0.5
	c-0.2,0-0.2,0.2-0.3,0.3v0.2c0.2,0,0.2,0,0.2,0c0.2-0.2,0.3-0.2,0.5-0.3c0,0,0,0,0.2,0v0.2c-0.2,0.2-0.3,0.5-0.7,0.7
	c0,0-0.2,0.2-0.2,0v-0.2V58c0,0-0.2,0-0.2,0.2s0,0.2,0,0.3c0,0.2,0,0.2-0.2,0.3c-0.2,0.2-0.3,0.5-0.9,0.3v0.2c0,0.2,0,0.2-0.2,0.2
	s-0.2,0.2-0.2,0.2s0,0.2-0.2,0.2s0-0.2,0-0.2s0-0.2-0.2,0c-0.2,0-0.3,0-0.3,0.2s-0.2,0.2-0.2,0.3c-0.3,0.2-0.5,0.5-0.9,0.9
	C96.2,60.8,96,61,95.8,61s-0.2,0-0.2,0.2c-0.3,0.5-0.7,1-1,1.5c-0.2,0.3-0.5,0.7-0.7,1.2h-0.2c0,0,0-0.2-0.2-0.2c0,0-0.2,0.2,0,0.2
	c0,0.2,0,0.2-0.2,0.3c-0.3,0.2-0.2,0.7-0.5,0.9c-0.2,0.2-0.2,0.3-0.3,0.3l-0.2,0.2c0,0.2-0.2,0.3-0.3,0.3c0,0,0,0.2-0.2,0.2
	c0,0.2,0,0.2-0.2,0.3c0,0,0,0.2-0.2,0.2c0,0-0.2,0-0.2-0.2s0-0.2,0.2-0.2c0.2-0.2,0.2-0.2,0.2-0.3c-0.2-0.3-0.2-0.7-0.3-0.9v-0.2
	c0.2-0.2,0.3-0.3,0.3-0.7c0-0.3,0.2-0.7,0.2-1.2v-0.2c0.2-0.3,0.3-0.7,0.3-1c0-0.2,0.2-0.2,0.2-0.3c0-0.2,0.2-0.2,0-0.3
	c-0.2,0-0.2-0.2-0.2-0.3c0-0.7,0-1.2,0-1.9c0-0.5,0-1,0.2-1.4c0.2-0.9,0.2-1.5,0.3-2.4c0-0.5,0-1.2,0-1.7c0-0.7,0-1.4,0-1.9
	c0-0.7,0-1.5-0.2-2.2c0-0.3-0.2-0.5-0.2-0.9c0-0.5-0.2-0.9-0.2-1.2V47c0.2-0.2,0.2-0.5,0-0.7v-0.2c0.2-0.2,0-0.5,0.2-0.9l0,0
	c-0.3-0.2,0-0.5,0-0.7c0-0.3,0-0.5,0-0.9v-0.2c-0.2,0-0.2-0.2-0.2-0.3c0-0.2,0-0.2,0.2-0.2c0.2-0.2,0.2-0.3,0-0.5s-0.3-0.3,0-0.5
	v-0.2c0-0.3,0-0.9,0-1.2c0-0.2,0-0.3-0.2-0.5v0c0-0.3,0-0.5,0-0.9V39c0.2-0.2,0-0.3,0-0.5s0-0.3,0-0.7c0-0.2,0.2-0.5,0.2-0.9
	c0-0.2,0-0.3-0.2-0.5c0-0.2,0-0.5,0-0.7s0-0.2,0-0.3c-0.2-0.2-0.2-0.5,0-0.7v-0.2c-0.2-0.2-0.2-0.3,0-0.5c0.2-0.3,0.2-0.7,0.2-1.2
	c-0.2-1,0-1.9-0.2-2.9c0-0.7,0-1.4,0-2.1s0-1.4,0-1.9c0-0.3-0.2-0.7-0.2-1v-0.2c-0.3,0-0.2-0.2-0.2-0.3C92,23.9,92,23.5,92,23
	c0-0.3-0.2-0.7-0.2-1c0-0.2,0-0.2,0-0.3c0-0.2,0-0.3,0-0.3c0-0.2-0.2-0.3,0-0.5v-0.2c0-0.2-0.2-0.3,0-0.5s-0.3-0.3-0.2-0.5
	c0.2-0.2,0-0.3,0.2-0.5c0-0.2,0-0.2-0.3-0.2c0.3-0.3,0.2-0.7,0.2-0.9c0-0.3,0-0.7,0-1c0-0.7,0-1.4,0-2.2c0-0.2,0-0.5,0-0.7
	s0-0.3-0.3-0.3s-0.5-0.2-0.9-0.2c-0.7,0-1.2-0.3-1.7-0.3s-0.9-0.3-1.2-0.3c-0.2,0-0.3-0.2-0.2,0.2c0,0.2,0,0.2-0.2,0
	c-0.7-0.2-1.4,0-2.1-0.3c-0.3-0.2-0.9,0-1.2,0c-1.2,0-2.2,0-3.4,0c-1.4,0-2.7,0-4.3,0c-1.4,0-2.7,0-4.3,0c-0.7,0-1.4,0-2.1,0
	s-1.5,0-2.2,0c-2.4-0.2-4.8,0-7.2,0c-1.4,0-2.7,0-4.1,0c-0.3,0-0.7,0-1-0.2c-0.2-0.2-0.3-0.2-0.5-0.2c-1,0-2.2,0-3.3,0
	c-0.5,0-1,0-1.7,0c-0.2,0-0.3,0-0.5,0.2c0.3,0.7,0.2,0.7-0.2,0.7c-1.2,0-2.2,0-3.4,0s-2.2,0-3.4,0c-3.3,0-6.5,0-9.8,0
	c-0.5,0-1,0.2-1.5,0.2c-1.2,0-2.2,0-3.4,0c-1.2,0-2.4,0-3.6,0c-1.7,0-3.4,0-5,0c-0.3,0-0.9,0-1.2,0.2c-0.7,0.2-1.4,0.2-2.1,0.2
	c-0.5,0-0.9,0-1.4,0l0,0c0.2,0.3-0.2,0.3-0.3,0.5c-0.2,0-0.3,0.2-0.2,0.3c0,0.7,0,1.4,0,2.2c0,0.5,0,1,0,1.5c0,0.3,0,0.5,0,0.7
	s0.2,0.3,0.2,0.5c-0.2,0-0.2,0-0.2,0.2s-0.2,0.3,0.2,0.5v0.2c-0.2,0-0.2,0-0.2,0.2c0,0.3,0,0.5,0,0.9s0,0.7,0,1.2
	c0.2,0.5-0.2,0.9,0,1.4c0,0.3,0.2,0.7,0.2,1v0.2c-0.3,0-0.2,0.2-0.2,0.3c0,0.5-0.2,1-0.2,1.5c0,0.2,0,0.3,0,0.7c0,0.7,0,1.4,0,2.1
	s0,1.5-0.2,2.2c0,0.2,0,0.3,0,0.3c0,0.3-0.2,0.7,0,1c0,0.3,0,0.7,0.2,1c0.2,0.2,0,0.3,0,0.5c0,0-0.2,0.2,0,0.2
	c0.2,0.2,0.2,0.5,0,0.7c0,0.2-0.2,0.3,0,0.5s0,0.3,0,0.5c-0.2,0.5,0,1,0,1.5c0,0.7,0,1.4,0,1.9s-0.2,1,0,1.7c0,0.3,0,0.7,0,0.9
	s0,0.3,0,0.3c0,0.2,0.2,0.3,0,0.5s0,0.5,0,0.7s-0.2,0.5,0.2,0.7v0.2c-0.3,0-0.2,0.2-0.2,0.2c0,0.2,0,0.2,0,0.3s0,0.3,0.3,0.2h0.2
	h0.2c0,0,0,0,0,0.2c-0.2,0.2-0.2,0.3-0.3,0.2c-0.2,0-0.2,0.2-0.2,0.3c0,0.2,0,0.3,0.2,0.3s0.2,0,0.2-0.2s0.2-0.2,0.3,0v0.2
	c-0.2,0-0.2,0.3-0.5,0.3c-0.9,0-0.9,0.2-0.9,0.2c0,0.2-0.2,0.5-0.2,0.7s0,0.3,0,0.5c0,0.5-0.2,0.9,0,1.4c0,0.3,0,0.7,0,0.9
	c0,0.5,0,1.2,0,1.9c0,0.2,0.2,0.3,0.2,0.5c0,0.3,0.2,0.7,0,1c0,0.3,0,0.9,0,1.4c-0.2,0.5,0,1-0.2,1.5c0,0.2,0,0.3,0.2,0.5
	c0,0.3,0,0.7,0,1c0,0.7,0.2,1.4,0.2,2.2c0,0.2,0,0.3,0,0.5s0,0.2-0.2,0.2s-0.2,0.2,0,0.3c0.2,0.2,0.2,0.5,0.3,0.7
	c0.2,0.5,0.3,1,0.5,1.4c0.2,0.2,0,0.5,0,0.7c-0.2,0.7-0.2,1.2-0.3,1.9c0,0.2,0,0.2,0.2,0.2s0.3,0,0.2,0.3c0,0.2,0,0.3,0,0.5V68h-0.2
	c-0.2,0-0.2-0.2-0.2-0.3c-0.2-0.3-0.2-0.5-0.3-0.9c0-0.2-0.3-0.2-0.5-0.3c-0.3-0.3-0.5-0.5-0.7-0.9l-0.2-0.2c0,0-0.2,0-0.2-0.2
	s-0.2-0.5-0.2-0.7c0,0,0,0,0-0.2c0.2-0.2,0-0.3-0.2-0.5c-0.2-0.2-0.3-0.3-0.5-0.3s-0.2-0.2-0.2-0.2c-0.2-0.2-0.3-0.2-0.7-0.2
	c-0.2,0-0.2,0-0.2,0c-0.2-0.2-0.2-0.3-0.2-0.5c-0.2-0.3-0.5-0.5-0.7-0.9c0-0.2-0.2-0.2-0.3-0.2c0,0-0.2,0-0.2-0.2s-0.2-0.2-0.2-0.2
	c-0.2,0-0.3-0.2-0.3-0.5c0-0.2,0-0.5-0.3-0.5c0,0-0.2,0-0.2-0.2c0-0.3-0.3-0.5-0.7-0.7c-0.2,0,0-0.2,0-0.2v-0.2H6.5
	c0,0-0.2,0.2-0.2,0v-0.2c0-0.2,0-0.3,0-0.5s0-0.2,0-0.3c0,0-0.2-0.2-0.2,0c-0.2,0,0,0.2,0,0.2c0,0.2,0,0.2,0,0.2
	c-0.2,0-0.2,0-0.2-0.2c-0.2-0.2-0.2-0.5-0.5-0.7c0,0-0.2-0.2,0-0.2c0,0,0.2-0.2,0.2,0c0.2,0.2,0.3,0.2,0.5,0.3h0.2v-0.2
	C6.3,57,6.1,57,6.1,57c-0.1,0.2-0.3,0-0.6,0l0,0c-0.2-0.3-0.3-0.2-0.5,0c0,0-0.2,0.2-0.2,0c-0.2-0.2-0.2-0.2-0.3,0
	c-0.2,0.2-0.3,0.2-0.3,0c0,0,0-0.2-0.2-0.2L3.8,57c0,0.2-0.2,0.3-0.2,0.5c-0.2,0-0.2-0.2-0.2-0.2c0-0.2,0-0.2-0.3-0.3
	c-0.2,0-0.2-0.2,0-0.3l0,0c0,0,0,0.2,0.2,0.2c0,0,0-0.2,0-0.3C3.1,56.2,2.9,56,2.4,56c0.2,0,0.2-0.2,0.3-0.2v-0.2c0-0.2-0.2,0-0.2,0
	H2.4v-0.2c0-0.2,0-0.2-0.2-0.3s-0.5-0.2-0.7-0.5c0-0.2,0-0.3,0.2-0.3s0.2,0,0.3,0c0,0,0.2,0,0.2-0.2c0,0,0-0.2-0.2-0.2
	s-0.2,0-0.2-0.2c0,0-0.2-0.2,0-0.2H2c0.2,0,0.3,0,0.3-0.2S2.1,53,2.5,53l0,0c-0.2-0.2,0-0.3,0.2-0.5s0.2-0.2,0.3,0
	c0,0,0.2,0.2,0.2,0s0-0.2-0.2-0.2c0,0-0.2,0-0.2-0.2s-0.2-0.2-0.2,0c-0.2,0.2-0.2,0-0.3,0c0,0,0.2,0,0.2-0.2c0.2,0,0.2-0.2,0-0.2
	c-0.2-0.2-0.2-0.3,0-0.3c0,0,0.2-0.2,0-0.2H2.4c-0.2,0.2-0.3,0.3-0.5,0.3v-0.2c0,0,0.2-0.2,0-0.2c0,0-0.2,0-0.2,0.2
	c0,0,0,0.2-0.2,0.2s0-0.2-0.2-0.2c0-0.2-0.2-0.2-0.2-0.3c0-0.2,0-0.2,0.2-0.2s0.2-0.2,0-0.2C1,50.7,1.2,50.5,1,50.3c0,0,0,0,0.2-0.2
	c0,0,0.2-0.2,0-0.2c0-0.2-0.2-0.2-0.2-0.2c-0.3,0.2-0.3,0-0.5-0.2v-0.2h0.2h0.2c0.2,0,0.5,0.3,0.7-0.2c0,0,0.2,0,0.3-0.2
	c-0.2,0-0.3,0-0.3,0.2c-0.2,0-0.3,0-0.5-0.2s-0.2-0.2-0.3-0.2c0.2-0.3,0-0.7,0.2-1c0-0.7,0-1.4,0-1.9c0-0.2-0.2-0.3,0-0.5
	c0,0-0.2-0.2-0.2,0c-0.3,0-0.3-0.2-0.3-0.3c0.2,0,0.2,0,0.3,0c-0.5-0.2-0.5-0.5-0.3-0.9v-0.2c0,0,0,0,0-0.2c0.2,0.2,0.2,0.3,0.2,0.5
	v0.2l0.2,0.2v-0.2c0-0.5,0-0.9,0-1.4s0-1.2,0-1.7c0-0.2,0-0.3,0-0.5s0-0.2-0.2-0.2s-0.2,0-0.2-0.2s0-0.3,0.2-0.3c0,0,0.2,0,0.2-0.2
	s0-0.2-0.2-0.2s-0.2,0-0.2-0.2c0-0.3,0-0.7,0-1.2c0-0.3,0.2-0.5,0-0.9v-0.2c0.3,0,0.2-0.2,0.2-0.2c0-0.3-0.2-0.7,0-1
	c0-0.2,0-0.2,0-0.2c0-0.2-0.2-0.2,0-0.3c0.2,0,0-0.2,0-0.2c-0.2-0.2-0.3-0.3,0-0.3c0.2,0,0-0.2,0-0.2S0.3,35,0.3,34.9v-0.2
	c0.2,0,0.2-0.2,0.3-0.3v-0.2c-0.2,0-0.2-0.2,0-0.3s0-0.3,0.2-0.3c0,0,0-0.2-0.2-0.2s-0.2-0.2,0-0.2c0,0,0.2-0.2,0-0.2
	c-0.3-0.3,0-0.7-0.3-1c0-0.2,0-0.2,0-0.3c0,0,0.2-0.2,0-0.2c-0.2-0.2,0-0.2,0-0.2c0.2,0,0.2-0.2,0-0.3v-0.2c0.2-0.2,0-0.3,0-0.7
	c-0.2,0-0.2,0.2-0.2,0.2H0C0,30.1,0.2,30,0.3,30c0.2,0,0.2,0,0.2-0.2s0-0.2,0-0.3s0-0.2,0-0.2s0,0-0.2,0s0,0.2,0,0.2
	C0,29.4,0,29,0,28.8c0-0.3,0-0.7,0-1c0-0.2,0-0.3,0.3-0.2c0.2,0.2,0.3-0.2,0.2-0.2c0-0.3,0-0.7,0-1s0-0.9,0-1.2s0-0.7,0-1
	c-0.2,0-0.2,0-0.2,0s0,0-0.2,0V24c0.2,0,0.2-0.2,0.2-0.2c0.2-0.2,0.2-0.2,0-0.3c0,0-0.2,0,0-0.2c0-0.2,0-0.3,0.2-0.3
	s0.2-0.2,0.2-0.3c0-0.2,0-0.3-0.3-0.5V22c0.3-0.2,0.2-0.3,0.2-0.5c-0.2-0.5-0.2-0.9-0.2-1.4c0-0.3,0-0.7,0-1.2c0-0.2,0-0.3,0-0.5
	c0-0.7,0-1.2,0.2-1.9c0-0.3,0-0.7,0-1s0-0.7,0-1s0-0.9,0-1.2c0-0.2,0-0.3,0.2-0.3s0.2,0,0-0.2c0,0,0,0,0-0.2c0,0-0.2-0.2,0-0.2
	s0.2,0,0.2,0.2c0,0,0,0.2,0.2,0.2l0,0v-0.2c-0.3-0.5-0.3-1-0.3-1.5v-0.2c-0.2-0.3,0-0.7,0-1s0-0.5,0-0.9c0-0.3,0-0.7,0-1
	c0-0.2,0.2-0.2,0-0.3V7.4C1,7.2,0.9,7.2,0.7,7s0-0.3,0-0.5s0.3,0,0.2-0.2c0-0.2-0.2-0.2-0.2-0.3c0-0.2,0.2-0.2,0.2-0.2
	s-0.2,0-0.2-0.2s0-0.2,0.2-0.2S1,5.5,1,5.3s0,0-0.2,0S0.7,5.2,0.7,5.2c0-0.3,0-0.7,0-1.2c0-0.7,0-1.2,0-1.9c0-0.3,0-0.3,0.3-0.3
	c0.2,0,0.2-0.2,0.2-0.3c0,0.2,0.2,0.2,0.3,0C2.1,1.2,2.4,1,2.9,0.9c0.2,0,0.3,0,0.5,0c0.3,0,0.9,0,1.2-0.2s0.7,0,1,0s0.9,0.2,1.4,0
	h0.2c0.3,0.3,0.7,0.2,1,0C8.6,0.5,9.1,0.3,9.4,0c0,0,0.2,0,0.3,0c1,0,2.2,0,3.3,0c1.4,0,2.6,0,3.9,0c1.5,0,3.3,0,4.8,0
	c2.2,0,4.5,0,6.5,0c0.7,0,1.5,0,2.2,0c0.9,0,1.5,0,2.4,0c0.5,0,0.9,0,1.4,0c0.2,0,0.2,0,0.3,0c0.9,0,1.7,0,2.6,0c0.7,0,1.4,0,2.1,0
	c1,0,2.2,0,3.3,0s2.2,0,3.3,0c0.5,0,1,0,1.4,0c1,0,1.9,0,2.9,0c1.2,0,2.2,0,3.4,0s2.4,0,3.8,0c0.2,0,0.3,0.2,0.5,0.2
	c1,0,2.2,0.2,3.3,0c0.5,0,0.9-0.2,1.4,0c0.3,0,0.5,0.2,0.9,0c0.3,0,0.9,0,1.2,0c0.5,0,0.9,0,1.4,0c0.7,0,1.5,0,2.2,0s1.4-0.2,2.1,0
	c0.5,0,0.9,0,1.4,0s0.9,0,1.2,0c0.5,0,1,0,1.7,0s1.2,0,1.9,0C77.3,0.2,78,0,78.8,0c1.4,0,2.6,0,3.9,0c1.4,0,2.6,0,3.9,0
	c1.2,0,2.4,0,3.6,0c1.4,0,2.6,0,3.9,0c0.3,0,0.7,0,1,0s0.9,0.2,1.2,0.3c0.2,0,0.2,0,0.3,0c0.7,0.2,1.5,0.2,2.2,0.2
	c0.3,0,0.5,0,0.9,0c0.2,0,0.3,0,0.5,0s0.3,0,0.3,0c0.3,0.2,0.7,0.2,0.9,0.2c0.3,0,0.7,0,1,0c0.2,0,0.3,0.3,0.3,0.7
	c0,0.5,0,0.9,0,1.4c0,0.2,0,0.5,0,0.7c0,0.3,0,0.7,0,1.2c0,0.2,0,0.3-0.2,0.2h-0.2c0,0,0,0.2,0.2,0.2s0.3-0.2,0.3,0.2
	c0,0.2,0,0.3-0.2,0.5l0,0c-0.2,0.2-0.2,0.2,0,0.2s0.2,0.5,0,0.5c-0.2,0.2-0.3,0.3,0,0.3c0,0,0.2,0.2,0,0.2s0.3,0,0.4,0
	s0.2,0.2,0.2,0.3c0,0.2,0,0.3,0,0.5V8c-0.2,0.5-0.2,0.9,0,1.4c0,0,0,0,0,0.2c-0.2,0.3,0,0.9-0.2,1.2c0,0.2-0.2,0.3-0.2,0.5
	c0,0,0,0.2-0.2,0.2l-0.2,0.2v0.2c0,0,0,0,0.2,0c0,0,0,0,0-0.2c0,0,0-0.2,0.2-0.2s0,0.2,0,0.2c-0.2,0.2-0.2,0.3,0.2,0.3
	c0.2,0,0.2,0.2,0.2,0.2c0,0.5,0,1,0,1.4c0,0.3,0,0.7,0,1c0,0.2,0,0.2,0,0.3c0,0.2,0,0.5,0,0.7c0.2,0.5,0,0.9,0.2,1.4
	c0.2,0.7,0,1.4,0,2.1c0,0.3,0,0.9-0.2,1.2c-0.2,0.2-0.3,0.3,0.2,0.5c0.2,0,0,0.2,0,0.2c0.7,1.5,0.7,1.7,0.7,2.2c0.2,0,0-0.2,0.2-0.2
	s0.2,0.2,0.2,0.3c0,0,0,0.2-0.2,0s-0.2,0-0.2,0.2c0,0.3-0.2,0.9,0,1.2c0,0,0,0,0,0.2c-0.2,0.3-0.2,0.7,0,1v0.2c-0.2,0.5,0,0.9,0,1.4
	c0,0.2,0.2,0.2,0.3,0.2c0.2-0.2,0.2,0,0.3,0.2c0,0.5,0,0.9,0,1.4c0,0.2-0.2,0.2-0.3,0.2v-0.2c0-0.2,0-0.2-0.2-0.2c0,0-0.2,0-0.2,0.2
	s0,0.3,0,0.5s0,0.2,0.2,0c0.2,0,0.5,0.2,0.5,0.3c0,0.2,0,0.2-0.2,0l-0.2-0.2c-0.2,0.2-0.2,0.3,0,0.7v0.2c0,0-0.2,0.2,0,0.2
	c0.2,0.2,0.2,0,0.3,0c0,0,0,0,0.2,0c0,0.3,0.2,0.7-0.2,1c0,0-0.2,0.2,0,0.3c0,0.2,0,0.2-0.2,0.2s-0.2,0.2-0.2,0.2v0.2
	c0.2,0,0.2,0,0.2-0.2c0,0,0-0.2,0.2-0.2s0,0.2,0,0.2v0.2c0,0.2,0.2,0.5-0.3,0.2c0,0-0.2,0-0.2,0.2s0.2,0.5,0.3,0.5
	c-0.2,0.2-0.2,0.3-0.3,0.3c-0.2,0.2,0,0.2,0,0.3s0,0.2,0.2,0.2h0.2c0,0.2,0,0.2-0.2,0.2h-0.2l-0.2,0.2c0,0.2,0.2,0,0.2,0
	c0.2,0,0.3,0.3,0.3,0.5c0,0.5,0,0.9,0,1.4C104.9,37.4,104.9,37.9,104.9,38.3 M2.1,52c0,0.2,0.3,0.2,0.2,0.5c0,0-0.2,0.2-0.3,0
	C1.7,52.2,1.9,52,2.1,52 M104.4,24C104.4,24,104.4,24.2,104.4,24c-0.3,0-0.3,0-0.3-0.2l0,0C104.2,23.9,104.4,23.9,104.4,24"/>
</svg>
