<?xml version="1.0" encoding="utf-8"?>
<!-- Generator: Adobe Illustrator 21.0.0, SVG Export Plug-In . SVG Version: 6.00 Build 0)  -->
<!DOCTYPE svg PUBLIC "-//W3C//DTD SVG 1.1//EN" "http://www.w3.org/Graphics/SVG/1.1/DTD/svg11.dtd">
<svg version="1.1" id="Layer_1" xmlns="http://www.w3.org/2000/svg" xmlns:xlink="http://www.w3.org/1999/xlink" x="0px" y="0px"
	 viewBox="0 0 64 32" style="enable-background:new 0 0 64 32;" xml:space="preserve">
<style type="text/css">
	.st0{fill:#FFFFFF;}
</style>
<title>100</title>
<desc>Created with Sketch.</desc>
<g id="D2-Event---Overview">
	<g id="Desktop-Event-Overview-1440" transform="translate(-168.000000, -2967.000000)">
		<g id="Group-11" transform="translate(140.000000, 2779.500000)">
			<g id="Warlock-symbol" transform="translate(0.000000, 188.280546)">
				<g id="_x31_00" transform="translate(28.000000, 0.000000)">
					<polygon id="Fill-1" class="st0" points="43.7,0 38.4,8.4 52.6,30.8 63.8,30.8 					"/>
					<polygon id="Fill-2" class="st0" points="31.7,0 26.2,8.5 31.6,17 37.1,8.4 					"/>
					<polygon id="Fill-3" class="st0" points="37.7,9.3 37.7,9.3 32.2,17.9 40.4,30.8 51.6,30.8 37.7,9.3 					"/>
					<polygon id="Fill-4" class="st0" points="11.8,30.8 11.9,30.8 22.8,30.8 31,17.9 25.6,9.4 					"/>
					<polygon id="Fill-5" class="st0" points="0,30.8 10.7,30.8 25,8.4 19.7,0.2 					"/>
					<polygon id="Fill-6" class="st0" points="23.9,30.8 23.9,30.8 39.4,30.8 31.6,18.8 					"/>
				</g>
			</g>
		</g>
	</g>
</g>
</svg>
