<svg xmlns="http://www.w3.org/2000/svg" width="265.1" height="211" viewBox="0 0 265.1 211"><defs><style>.a{fill:none;stroke-miterlimit:10;}.b{fill:#fff;}</style></defs><line class="a stroke-element" x1="187.6" y1="46.3" x2="187.6" y2="164.3"></line><circle class="a stroke-element" cx="135.2" cy="104.9" r="79"></circle><circle class="a stroke-element" cx="135.2" cy="104.9" r="52"></circle><polygon class="a stroke-element" points="222.2 155.1 135.2 205.4 48.2 155.1 48.2 54.7 135.2 4.4 222.2 54.7 222.2 155.1"></polygon><polygon class="a stroke-element" points="215.2 151.1 135.2 197.3 55.2 151.1 55.2 58.7 135.2 12.5 215.2 58.7 215.2 151.1"></polygon><path class="fill-element" d="M.9,0S17.3,9.2,42,23.1s57.4,32.5,90.2,51c32.7,18.7,65.5,37.4,90,51.4S263,149,263,149s-16.4-9.2-41.1-23.1-57.4-32.5-90.2-51C99,56.2,66.2,37.5,41.7,23.5S.9,0,.9,0Z"></path><path class="fill-element" d="M1.9,59S18.3,68.2,43,82.1s57.4,32.5,90.2,51c32.7,18.7,65.5,37.4,90,51.4S264,208,264,208s-16.4-9.2-41.1-23.1-57.4-32.5-90.2-51c-32.7-18.7-65.5-37.4-90-51.4S1.9,59,1.9,59Z"></path><path class="fill-element" d="M265.1,2s-16.3,9.4-40.8,23.5-57.3,32.7-90,51.4-65.6,37.1-90.2,51S3,151,3,151s16.3-9.4,40.8-23.5,57.3-32.7,90-51.4S199.4,39,224,25.1,265.1,2,265.1,2Z"></path><path class="fill-element" d="M262.1,62s-16.3,9.4-40.8,23.5-57.3,32.7-90,51.4-65.6,37.1-90.2,51S0,211,0,211s16.3-9.4,40.8-23.5,57.3-32.7,90-51.4S196.4,99,221,85.1,262.1,62,262.1,62Z"></path><line class="a stroke-element" x1="82.6" y1="46.3" x2="82.6" y2="164.3"></line><polygon class="fill-element" points="107.7 61.3 108.4 148.9 186.1 105 107.7 61.3"></polygon></svg>