<?xml version="1.0" encoding="utf-8"?>
<!-- Generator: Adobe Illustrator 21.0.0, SVG Export Plug-In . SVG Version: 6.00 Build 0)  -->
<!DOCTYPE svg PUBLIC "-//W3C//DTD SVG 1.1//EN" "http://www.w3.org/Graphics/SVG/1.1/DTD/svg11.dtd">
<svg version="1.1" id="Layer_1" xmlns="http://www.w3.org/2000/svg" xmlns:xlink="http://www.w3.org/1999/xlink" x="0px" y="0px"
	 viewBox="0 0 36.7 73.3" style="enable-background:new 0 0 36.7 73.3;" xml:space="preserve">
<style type="text/css">
	.st0{fill:#FFFFFF;}
</style>
<g transform="matrix( 0.2403411865234375, 0, 0, 0.2403411865234375, -48.55,29.75) ">
	<g>
		<g id="Layer1_0_FILL">
			<path class="st0" d="M293.1,157.3c-0.3,0-0.7,0-1,0c-3.3,0-6.7,0-10,0c0,0.3,0,0.5-0.1,0.5c-2.5,0.5-4.4,1.3-5.9,2.5
				c0,0.3-0.1,0.6-0.2,0.9c-1.2,4.4-3.2,8.1-5.9,11.1c0.2,3.5,1.5,5.6,4.2,6.4c1.2,0.4,2.5,0.7,3.7,1.1c1.1,0.3,2.2,0.8,3.2,1.5
				c0.3,0,0.7,0,1,0c5,0,10,0,15,0c0.3,0,0.6-0.1,0.8-0.2c2.4-2.2,4.9-4.5,7.2-6.8c0-0.3,0-0.6,0.1-1c0.6-1.4,1.2-2.7,1.9-4.1
				c0-0.3,0-0.7,0-1c0-2.3,0-4.7,0-7c-0.3,0-0.5-0.1-0.6-0.2c-0.6-1.2-1.1-2.5-1.4-3.8c-0.3,0-0.5-0.1-0.6-0.2
				c-1.1-2-2.9-3.3-5.4-3.8c0,0.3,0,0.5-0.1,0.5C296.4,154.4,294.4,155.6,293.1,157.3 M308.1,127.3c-0.3,0-0.6-0.1-1-0.2
				c-4.6-1.9-9.6-3.5-15-4.8v0.5c-1.8-0.1-2.8,0.4-3,1.5c-3,0-6-0.1-9-0.2c-3.2-0.1-5.8,0.3-8,1.2c-4.6,1.8-9.2,3.4-14,5
				c-1,1.4-1.8,3-2.4,4.9c-0.4,1.4-1,2.8-1.6,4.1c0,0.3,0,0.7-0.1,1c-0.5,4.2,0.2,7.2,2.1,9c1.3,1,3.3,1.2,5.9,0.8
				c4.7-0.8,10.1-1.1,16.1-0.8c0-0.3,0-0.5,0.1-0.5c3.1-0.5,5.4-1.7,6.9-3.5c0.3,0,0.7,0,1-0.1c8.3-1.3,16.7-1.3,25,0.1
				c0.3,0,0.6-0.1,0.8-0.2c1.3-1,2.7-1.9,4.2-2.8c0-1-0.1-2-0.4-2.9C314.1,134.5,311.6,130.5,308.1,127.3 M250.1,120.3
				c0-0.3,0-0.5,0-0.5c3.9-0.4,6.2-2.3,7-5.5c2.4-0.6,5.1-0.9,8-1c3-0.1,5.6-0.4,8-1c4.6-1.1,9.6-1.8,15-2v-0.5
				c1.8,0.1,2.8-0.4,3-1.5c0.3,0,0.7,0,1,0c3.3,0,6.7,0,10,0c1-0.7,2-1.2,3.1-1.7c0.6-0.2,1.1-0.5,1.5-0.8c3.3-2.3,7.1-4.1,11.4-5.5
				c0-0.3,0.1-0.5,0.2-0.6c1.7-0.8,2.3-2.6,1.8-5.4c0-0.3-0.1-0.6-0.2-0.9c-0.2-0.4-0.5-0.6-0.9-0.6c-5.3-0.3-10.6-0.3-16-0.1
				c-18.7,0.7-38.1,1-58,0.7c-0.7,0-1.3-0.1-1.8-0.4c-1.6-0.9-4-0.9-7.1-0.1c-3.8,0.9-7.8,1.8-12.1,2.6c0,0.3-0.1,0.6-0.3,0.8
				c-1,1-2,2-2.8,3.3c0,0.3,0,0.7-0.1,1c-0.3,4.6,0.4,8.3,2.1,11c0.3,0,0.6,0.1,0.9,0.2c5.3,2.3,10.3,4.9,15.1,7.8
				c0.3,0,0.7,0,1,0.1C243.2,119.9,246.6,120.2,250.1,120.3 M272.1-103.1c0.7-0.1,1.4-0.2,2.1-0.2c3-0.3,5.9-0.2,8.9,0.2
				c3,0.4,6.3,0.5,10.1,0.4c1-0.7,2-1.2,3.1-1.8c3-1.5,5.6-3.2,7.9-5.3c0-0.3,0.1-0.6,0.2-0.8c1.2-1.3,1.1-2.7-0.2-4.2
				c-1.7-1.3-3.7-2.1-6.1-2.4c-2.9-0.4-5.5-1-7.9-1.7c-2.6-0.7-4.9-1.7-7-2.9c-3.3,0-6.7,0-10,0c-1.3,0-2.6-0.2-3.8-0.7
				c-3-1.1-6.7-1.5-11.2-1.3c-2.6,2.8-4.9,5.8-7.1,9c-0.3,0.4-0.4,0.7-0.4,1c0.1,2.5-0.4,4.2-1.5,5.1c0,0.3,0.1,0.6,0.2,0.9
				c1,2,1.9,4,2.8,6.1C259.1-101.7,265.8-102.2,272.1-103.1 M354.6,3.3c0.1-2.8-0.7-3.4-2.5-2c-0.1,1.8,0.5,2.6,2,2.6
				C354.5,3.8,354.6,3.6,354.6,3.3 M331.6-20.8c-0.4-1.8-0.9-3.4-1.4-4.9c-3.7-3-7-6.4-10-10.1c-2.8-3.5-6.9-5.8-12.1-7
				c0-0.3-0.1-0.5-0.2-0.6c-1.3-0.8-2.2-1.9-2.8-3.4c-0.3,0-0.6,0-1-0.1c-2.1-0.8-4.1-1.8-6-2.9c-0.3,0-0.7,0-1,0.1
				c-4.2,0.4-8.6,0.7-13,0.9v-0.5c-1.8,0.1-2.8-0.4-3-1.5c-0.3,0-0.7,0-1,0c-2.3,0-4.7,0-7,0c0,0.3-0.1,0.5-0.2,0.6
				c-2.6,0.9-4.9,2.1-6.8,3.5c-0.3,0-0.7,0-1,0c-4.7,0-9.3,0-14,0c0,0.3-0.1,0.5-0.2,0.6c-2.8,0.8-5.4,1.6-7.8,2.4
				c0,0.3-0.1,0.6-0.2,0.8c-1.2,1.2-2.4,2.2-3.8,3.2c0,0.3-0.1,0.6-0.2,0.9c-1.1,2.1-2.1,4.5-2.8,7.1c-0.3,0-0.6,0.1-0.8,0.2
				c-6.4,5.2-12.8,10.5-19.2,15.8c0,0.3,0,0.7-0.1,1c-0.4,2.2-1,4.2-1.9,6c0,0.3-0.1,0.5-0.2,0.6c-1.9,0.9-3.5,2-4.8,3.4
				c-1,2.7-2.1,5.3-3.2,7.9c-0.2,0.4-0.3,0.8-0.3,1.1c-0.3,4-1.4,7-3.4,9c-0.4,5,0,9.4,1,13c1.1,3.6,1.7,7.6,2,12
				c0.3,0,0.5,0.1,0.5,0.2c1.6,5.2,3.5,10.2,5.5,14.9c0.3,0,0.5,0.1,0.6,0.2c0.5,1,1.3,1.6,2.4,1.8c0,0.3,0.1,0.6,0.2,0.9
				c0.8,1.8,1.4,3.9,1.8,6.1c0.3,0,0.6,0.1,0.8,0.2c7.9,6.4,16.7,12,26.2,16.8c0.3,0,0.7,0,1,0c1.7,0,3.3,0,5,0
				c2.7,1.7,6,2.8,9.9,3.4c0.4,0.1,0.7,0.1,1.1,0.1c5.6,0.3,11.3,0.5,17,0.5c1-0.7,2-1.2,3.1-1.7c0.6-0.2,1.1-0.5,1.6-0.7
				c3.8-2,7.9-3.9,12.2-5.6c0.3,0,0.6,0.1,0.8,0.2c1.8,1.5,3.9,2.8,6.2,3.8c0.3,0,0.7,0,1,0c3.3,0,6.7,0,10,0c0-0.3,0.1-0.6,0.2-0.7
				c2-1.7,3.6-3.8,4.8-6.3c0.3,0,0.7,0,1,0.1c4.3,0.6,8,0.6,11-0.1c0-0.3-0.1-0.6-0.2-0.9c-1-2.6-2.6-4.6-4.8-6.1
				c0-0.3,0.1-0.6,0.2-0.8c1.8-2.9,4-5.3,6.8-7.2c0-0.3,0.1-0.6,0.2-0.8c0.5-0.8,0.7-1.9,0.8-3.2c2.3-2,4.2-4.4,5.6-7.2
				c0.3-0.5,0.6-1,0.9-1.5c2-2.9,2.8-7,2.6-12.3c0.3,0,0.5-0.1,0.6-0.2c0.3-0.5,0.5-1.1,0.8-1.6c1.3-2.3,2.1-5,2.6-8.3
				c0-0.3-0.1-0.6-0.2-0.8c-1.4-1.8-2.4-4.2-2.8-7.2c-0.3,0-0.6-0.1-0.7-0.2c-0.8-1.3-1.9-2.2-3.3-2.8c0-0.3-0.1-0.6-0.2-0.9
				c-1.1-3.2-2.3-6.3-3.8-9.1c0-0.3,0-0.7,0-1c0-1.7,0-3.3,0-5c-0.3,0-0.5,0-0.6-0.1c-0.5-2.1-1.3-3.7-2.4-4.9
				c0.3-0.7,0.5-1.4,0.6-2.1c0.3-3,0.4-6,0.4-9C331.8-20.7,331.6-20.8,331.6-20.8 M232.1,10.3c0.8-1.5,1.6-3.1,2.4-4.8
				c1.3-2.9,2.5-5.9,3.6-9.2c4.7-4.3,9.6-8.4,14.8-12.3c0.2-0.1,0.3-0.4,0.2-0.7c2.1-0.9,4.4-1.7,6.8-2.4c0.1,0,0.2-0.2,0.2-0.6
				c3.2,0.2,5.9-0.1,8-0.8c3.6-1.2,7.9-1.5,12.9-0.9c1.4,0.1,2.7,0.2,4.1,0.4c2.6,0.2,5.3,0.3,8,0.3c1.1,0.9,2.4,1.5,4,1.9
				c0.3,0.1,0.6,0.1,1,0.1c1.2,2.1,2.8,3.9,4.8,5.3c0.2,0.1,0.3,0.4,0.2,0.7c1.9,0.1,3.5,0.2,5,0.4c2.2,0.2,3.9,0.8,5,1.6
				c3.3,6.3,6.1,13.3,8.4,20.9c0,0.1,0.2,0.1,0.6,0.1c0,2,0,4,0,6c0,0.3,0,0.7,0,1c-2.5,3.3-2.9,7.3-1.2,12.1
				c0.1,0.3,0.2,0.6,0.2,0.9c-4.2,3.1-8.1,6.5-11.8,10.3c-0.2,0.2-0.2,0.4-0.2,0.8c-4,1-7.1,2.9-9.6,5.5c-0.3,0.3-0.7,0.6-1.2,0.9
				c-0.1,0.1-0.2,0.3-0.2,0.6c-2.3,0-4.7,0-7,0c-0.3,0-0.7,0-1,0c-1.8,1.2-3.7,2.3-5.8,3.4c-0.1,0.1-0.2,0.3-0.2,0.6
				c-7.6,0.6-13.6-0.4-18.1-2.8c-0.3-0.1-0.6-0.2-0.9-0.2c-3.1,0.9-5.3,2.8-6.5,5.9c0,0.1-0.2,0.1-0.5,0.1c-3.9-1.7-7.2-4.1-9.8-7.2
				c-2.7-3.3-5.8-6.2-9.3-8.8c-0.5-1.5-0.9-3.1-1-5c0-0.3,0-0.7,0-1c-2.8-1.5-4.7-4.2-5.5-7.9c0-0.1-0.2-0.1-0.5-0.1
				c0-4.7,0-9.3,0-14C232.1,10.9,232.1,10.6,232.1,10.3 M328.2-68.3c4.1-0.8,6.8-2.9,8-6.4c-2.3-2-6-2.9-11.1-2.6
				c-4.1,0.2-7.8-0.3-10.9-1.5c-5.9-2.4-11.6-5-17.1-7.9c-2.3,0-4.6,0.1-7,0.4c-2.2,0.3-4.5,0.5-7,0.8c-2.7,0.3-5.3,0.5-8,0.6
				c-3,0.2-6,0.4-9,0.8c-5.4,0.7-11.4,1-18,1.1c-4.6,0-8.6,0.8-12,2.4c0,0.3-0.1,0.6-0.2,0.7c-3.2,2.9-6.4,5.6-9.8,8.3
				c0,0.3,0,0.7-0.1,1c-0.4,3.8,0.3,6.4,2.1,8c3.6,1.1,7.9,1.3,12.9,0.7c0.7-0.1,1.4-0.2,2.1-0.2c2.6-0.3,5.3-0.6,7.9-0.9
				c2.4-0.3,4.7-0.7,7.1-0.9c3-0.4,5.9-0.7,8.9-1c0.4,0,0.7-0.1,1.1-0.1c19.6-1,38.6-1.2,57-0.5c0.7-0.7,1.3-1.3,2-2
				C327.5-68.1,327.8-68.3,328.2-68.3z"/>
		</g>
	</g>
</g>
</svg>
